{
	"asset":{
		"generator":"Khronos glTF Blender I/O v5.0.21",
		"version":"2.0"
	},
	"extensionsUsed":[
		"KHR_materials_specular",
		"KHR_texture_transform"
	],
	"extensionsRequired":[
		"KHR_texture_transform"
	],
	"scene":0,
	"scenes":[
		{
			"name":"Scene",
			"nodes":[
				0,
				1,
				2,
				3,
				4,
				5
			]
		}
	],
	"nodes":[
		{
			"mesh":0,
			"name":"Environment"
		},
		{
			"mesh":1,
			"name":"Ceiling"
		},
		{
			"mesh":2,
			"name":"BarStand_UE"
		},
		{
			"mesh":3,
			"name":"Cube.001"
		},
		{
			"mesh":4,
			"name":"Plane"
		},
		{
			"mesh":5,
			"name":"Cube.002"
		}
	],
	"materials":[
		{
			"extensions":{
				"KHR_materials_specular":{
					"specularColorFactor":[
						2.0,
						2.0,
						2.0
					]
				}
			},
			"name":"cafe_wall_mi",
			"normalTexture":{
				"extensions":{
					"KHR_texture_transform":{
						"offset":[
							0,
							-4.639000058174133
						],
						"scale":[
							4.5,
							4.5
						]
					}
				},
				"index":0
			},
			"pbrMetallicRoughness":{
				"baseColorTexture":{
					"extensions":{
						"KHR_texture_transform":{
							"offset":[
								0,
								-4.639000058174133
							],
							"scale":[
								4.5,
								4.5
							]
						}
					},
					"index":1
				},
				"metallicFactor":0,
				"roughnessFactor":0.5
			}
		},
		{
			"doubleSided":true,
			"extensions":{
				"KHR_materials_specular":{
					"specularColorFactor":[
						2.0,
						2.0,
						2.0
					]
				}
			},
			"name":"cafe_floor_hm_Inst4",
			"normalTexture":{
				"extensions":{
					"KHR_texture_transform":{
						"offset":[
							0,
							-2
						],
						"scale":[
							3,
							3
						]
					}
				},
				"index":2
			},
			"pbrMetallicRoughness":{
				"baseColorTexture":{
					"extensions":{
						"KHR_texture_transform":{
							"offset":[
								0,
								-2
							],
							"scale":[
								3,
								3
							]
						}
					},
					"index":3
				},
				"metallicFactor":0,
				"metallicRoughnessTexture":{
					"extensions":{
						"KHR_texture_transform":{
							"offset":[
								0,
								-2
							],
							"scale":[
								3,
								3
							]
						}
					},
					"index":4
				}
			}
		},
		{
			"extensions":{
				"KHR_materials_specular":{
					"specularColorFactor":[
						2.0,
						2.0,
						2.0
					]
				}
			},
			"name":"cafe_ceiling",
			"normalTexture":{
				"extensions":{
					"KHR_texture_transform":{
						"offset":[
							0,
							-4.639000058174133
						],
						"scale":[
							4.5,
							4.5
						]
					}
				},
				"index":5
			},
			"pbrMetallicRoughness":{
				"baseColorTexture":{
					"extensions":{
						"KHR_texture_transform":{
							"offset":[
								0,
								-4.639000058174133
							],
							"scale":[
								4.5,
								4.5
							]
						}
					},
					"index":6
				},
				"metallicFactor":0,
				"roughnessFactor":0.5527864098548889
			}
		},
		{
			"doubleSided":true,
			"extensions":{
				"KHR_materials_specular":{
					"specularColorFactor":[
						0.4000000059604645,
						0.4000000059604645,
						0.4000000059604645
					]
				}
			},
			"name":"Wood",
			"pbrMetallicRoughness":{
				"baseColorTexture":{
					"index":7
				},
				"metallicFactor":0,
				"roughnessFactor":0.5527864098548889
			}
		},
		{
			"doubleSided":true,
			"name":"Door_small",
			"pbrMetallicRoughness":{
				"baseColorTexture":{
					"index":8
				},
				"metallicFactor":0,
				"roughnessFactor":0.5
			}
		},
		{
			"doubleSided":true,
			"name":"Street.cobblestone",
			"pbrMetallicRoughness":{
				"baseColorTexture":{
					"extensions":{
						"KHR_texture_transform":{
							"offset":[
								0,
								-14
							],
							"scale":[
								15,
								15
							]
						}
					},
					"index":9
				},
				"metallicFactor":0,
				"roughnessFactor":0.5
			}
		}
	],
	"meshes":[
		{
			"name":"Cube.003",
			"primitives":[
				{
					"attributes":{
						"POSITION":0,
						"NORMAL":1,
						"TEXCOORD_0":2,
						"TEXCOORD_1":3,
						"TEXCOORD_2":4,
						"TANGENT":5
					},
					"indices":6,
					"material":0
				},
				{
					"attributes":{
						"POSITION":7,
						"NORMAL":8,
						"TEXCOORD_0":9,
						"TEXCOORD_1":10,
						"TEXCOORD_2":11,
						"TANGENT":12
					},
					"indices":13,
					"material":1
				}
			]
		},
		{
			"name":"CubeGridToolOutput_F1C43FB0.004",
			"primitives":[
				{
					"attributes":{
						"POSITION":14,
						"NORMAL":15,
						"TEXCOORD_0":16,
						"TEXCOORD_1":17,
						"TANGENT":18
					},
					"indices":19,
					"material":2
				}
			]
		},
		{
			"name":"BarStand_UE",
			"primitives":[
				{
					"attributes":{
						"POSITION":20,
						"NORMAL":21,
						"TEXCOORD_0":22,
						"TEXCOORD_1":23,
						"TANGENT":24
					},
					"indices":25,
					"material":3
				}
			]
		},
		{
			"name":"Cube",
			"primitives":[
				{
					"attributes":{
						"POSITION":26,
						"NORMAL":27,
						"TEXCOORD_0":28,
						"TANGENT":29
					},
					"indices":30,
					"material":4
				}
			]
		},
		{
			"name":"Plane",
			"primitives":[
				{
					"attributes":{
						"POSITION":31,
						"NORMAL":32,
						"TEXCOORD_0":33,
						"TANGENT":34
					},
					"indices":35,
					"material":5
				}
			]
		},
		{
			"name":"Cube.006",
			"primitives":[
				{
					"attributes":{
						"POSITION":36,
						"NORMAL":37,
						"TEXCOORD_0":38,
						"TANGENT":39
					},
					"indices":30,
					"material":4
				}
			]
		}
	],
	"textures":[
		{
			"sampler":0,
			"source":0
		},
		{
			"sampler":0,
			"source":1
		},
		{
			"sampler":0,
			"source":2
		},
		{
			"sampler":0,
			"source":3
		},
		{
			"sampler":0,
			"source":4
		},
		{
			"sampler":0,
			"source":5
		},
		{
			"sampler":0,
			"source":6
		},
		{
			"sampler":1,
			"source":7
		},
		{
			"sampler":1,
			"source":8
		},
		{
			"sampler":1,
			"source":9
		}
	],
	"images":[
		{
			"mimeType":"image/png",
			"name":"Wall_INST_normal_512",
			"uri":"Wall_INST_normal_512.png"
		},
		{
			"mimeType":"image/png",
			"name":"Wall_INST_basecolor_512",
			"uri":"Wall_INST_basecolor_512.png"
		},
		{
			"mimeType":"image/png",
			"name":"Floor_INST_normal_512",
			"uri":"Floor_INST_normal_512.png"
		},
		{
			"mimeType":"image/png",
			"name":"Floor_INST_basecolor_512",
			"uri":"Floor_INST_basecolor_512.png"
		},
		{
			"mimeType":"image/png",
			"name":"Floor_INST_roughness_512",
			"uri":"Floor_INST_roughness_512.png"
		},
		{
			"mimeType":"image/png",
			"name":"Ceiling_INST_normal_512",
			"uri":"Ceiling_INST_normal_512.png"
		},
		{
			"mimeType":"image/png",
			"name":"Ceiling_INST_basecolor_512",
			"uri":"Ceiling_INST_basecolor_512.png"
		},
		{
			"mimeType":"image/png",
			"name":"Furn_wood_top_basecolor",
			"uri":"Furn_wood_top_basecolor.png"
		},
		{
			"mimeType":"image/png",
			"name":"door2",
			"uri":"door2.png"
		},
		{
			"mimeType":"image/png",
			"name":"cobblestone",
			"uri":"cobblestone.png"
		}
	],
	"accessors":[
		{
			"bufferView":0,
			"componentType":5126,
			"count":418,
			"max":[
				25.790525436401367,
				11.032549858093262,
				23.9945068359375
			],
			"min":[
				-26.209869384765625,
				0.041047122329473495,
				-26.0054874420166
			],
			"type":"VEC3"
		},
		{
			"bufferView":1,
			"componentType":5126,
			"count":418,
			"type":"VEC3"
		},
		{
			"bufferView":2,
			"componentType":5126,
			"count":418,
			"type":"VEC2"
		},
		{
			"bufferView":3,
			"componentType":5126,
			"count":418,
			"type":"VEC2"
		},
		{
			"bufferView":4,
			"componentType":5126,
			"count":418,
			"type":"VEC2"
		},
		{
			"bufferView":5,
			"componentType":5126,
			"count":418,
			"type":"VEC4"
		},
		{
			"bufferView":6,
			"componentType":5123,
			"count":849,
			"type":"SCALAR"
		},
		{
			"bufferView":7,
			"componentType":5126,
			"count":158,
			"max":[
				25.790525436401367,
				11.032549858093262,
				23.9945068359375
			],
			"min":[
				-26.209869384765625,
				-7.232134521473199e-05,
				-26.0054874420166
			],
			"type":"VEC3"
		},
		{
			"bufferView":8,
			"componentType":5126,
			"count":158,
			"type":"VEC3"
		},
		{
			"bufferView":9,
			"componentType":5126,
			"count":158,
			"type":"VEC2"
		},
		{
			"bufferView":10,
			"componentType":5126,
			"count":158,
			"type":"VEC2"
		},
		{
			"bufferView":11,
			"componentType":5126,
			"count":158,
			"type":"VEC2"
		},
		{
			"bufferView":12,
			"componentType":5126,
			"count":158,
			"type":"VEC4"
		},
		{
			"bufferView":13,
			"componentType":5123,
			"count":426,
			"type":"SCALAR"
		},
		{
			"bufferView":14,
			"componentType":5126,
			"count":36,
			"max":[
				25.594999313354492,
				10.965505599975586,
				23.900253295898438
			],
			"min":[
				-26.150497436523438,
				10.965459823608398,
				-25.826101303100586
			],
			"type":"VEC3"
		},
		{
			"bufferView":15,
			"componentType":5126,
			"count":36,
			"type":"VEC3"
		},
		{
			"bufferView":16,
			"componentType":5126,
			"count":36,
			"type":"VEC2"
		},
		{
			"bufferView":17,
			"componentType":5126,
			"count":36,
			"type":"VEC2"
		},
		{
			"bufferView":18,
			"componentType":5126,
			"count":36,
			"type":"VEC4"
		},
		{
			"bufferView":19,
			"componentType":5123,
			"count":150,
			"type":"SCALAR"
		},
		{
			"bufferView":20,
			"componentType":5126,
			"count":88,
			"max":[
				5.792853355407715,
				1.8786866664886475,
				9.073402404785156
			],
			"min":[
				-3.380002975463867,
				-0.0707392692565918,
				-7.997515678405762
			],
			"type":"VEC3"
		},
		{
			"bufferView":21,
			"componentType":5126,
			"count":88,
			"type":"VEC3"
		},
		{
			"bufferView":22,
			"componentType":5126,
			"count":88,
			"type":"VEC2"
		},
		{
			"bufferView":23,
			"componentType":5126,
			"count":88,
			"type":"VEC2"
		},
		{
			"bufferView":24,
			"componentType":5126,
			"count":88,
			"type":"VEC4"
		},
		{
			"bufferView":25,
			"componentType":5123,
			"count":210,
			"type":"SCALAR"
		},
		{
			"bufferView":26,
			"componentType":5126,
			"count":24,
			"max":[
				-24.63727378845215,
				7.012194633483887,
				1.9769747257232666
			],
			"min":[
				-25.627031326293945,
				0.03829169273376465,
				-1.995361328125
			],
			"type":"VEC3"
		},
		{
			"bufferView":27,
			"componentType":5126,
			"count":24,
			"type":"VEC3"
		},
		{
			"bufferView":28,
			"componentType":5126,
			"count":24,
			"type":"VEC2"
		},
		{
			"bufferView":29,
			"componentType":5126,
			"count":24,
			"type":"VEC4"
		},
		{
			"bufferView":30,
			"componentType":5123,
			"count":36,
			"type":"SCALAR"
		},
		{
			"bufferView":31,
			"componentType":5126,
			"count":4,
			"max":[
				43.15039825439453,
				-0.5139961242675781,
				43.016815185546875
			],
			"min":[
				-59.32911682128906,
				-0.5139961242675781,
				-59.46269989013672
			],
			"type":"VEC3"
		},
		{
			"bufferView":32,
			"componentType":5126,
			"count":4,
			"type":"VEC3"
		},
		{
			"bufferView":33,
			"componentType":5126,
			"count":4,
			"type":"VEC2"
		},
		{
			"bufferView":34,
			"componentType":5126,
			"count":4,
			"type":"VEC4"
		},
		{
			"bufferView":35,
			"componentType":5123,
			"count":6,
			"type":"SCALAR"
		},
		{
			"bufferView":36,
			"componentType":5126,
			"count":24,
			"max":[
				7.258971691131592,
				7.012194633483887,
				13.994773864746094
			],
			"min":[
				6.2692131996154785,
				0.03829169273376465,
				10.022438049316406
			],
			"type":"VEC3"
		},
		{
			"bufferView":37,
			"componentType":5126,
			"count":24,
			"type":"VEC3"
		},
		{
			"bufferView":38,
			"componentType":5126,
			"count":24,
			"type":"VEC2"
		},
		{
			"bufferView":39,
			"componentType":5126,
			"count":24,
			"type":"VEC4"
		}
	],
	"bufferViews":[
		{
			"buffer":0,
			"byteLength":5016,
			"byteOffset":0,
			"target":34962
		},
		{
			"buffer":0,
			"byteLength":5016,
			"byteOffset":5016,
			"target":34962
		},
		{
			"buffer":0,
			"byteLength":3344,
			"byteOffset":10032,
			"target":34962
		},
		{
			"buffer":0,
			"byteLength":3344,
			"byteOffset":13376,
			"target":34962
		},
		{
			"buffer":0,
			"byteLength":3344,
			"byteOffset":16720,
			"target":34962
		},
		{
			"buffer":0,
			"byteLength":6688,
			"byteOffset":20064,
			"target":34962
		},
		{
			"buffer":0,
			"byteLength":1698,
			"byteOffset":26752,
			"target":34963
		},
		{
			"buffer":0,
			"byteLength":1896,
			"byteOffset":28452,
			"target":34962
		},
		{
			"buffer":0,
			"byteLength":1896,
			"byteOffset":30348,
			"target":34962
		},
		{
			"buffer":0,
			"byteLength":1264,
			"byteOffset":32244,
			"target":34962
		},
		{
			"buffer":0,
			"byteLength":1264,
			"byteOffset":33508,
			"target":34962
		},
		{
			"buffer":0,
			"byteLength":1264,
			"byteOffset":34772,
			"target":34962
		},
		{
			"buffer":0,
			"byteLength":2528,
			"byteOffset":36036,
			"target":34962
		},
		{
			"buffer":0,
			"byteLength":852,
			"byteOffset":38564,
			"target":34963
		},
		{
			"buffer":0,
			"byteLength":432,
			"byteOffset":39416,
			"target":34962
		},
		{
			"buffer":0,
			"byteLength":432,
			"byteOffset":39848,
			"target":34962
		},
		{
			"buffer":0,
			"byteLength":288,
			"byteOffset":40280,
			"target":34962
		},
		{
			"buffer":0,
			"byteLength":288,
			"byteOffset":40568,
			"target":34962
		},
		{
			"buffer":0,
			"byteLength":576,
			"byteOffset":40856,
			"target":34962
		},
		{
			"buffer":0,
			"byteLength":300,
			"byteOffset":41432,
			"target":34963
		},
		{
			"buffer":0,
			"byteLength":1056,
			"byteOffset":41732,
			"target":34962
		},
		{
			"buffer":0,
			"byteLength":1056,
			"byteOffset":42788,
			"target":34962
		},
		{
			"buffer":0,
			"byteLength":704,
			"byteOffset":43844,
			"target":34962
		},
		{
			"buffer":0,
			"byteLength":704,
			"byteOffset":44548,
			"target":34962
		},
		{
			"buffer":0,
			"byteLength":1408,
			"byteOffset":45252,
			"target":34962
		},
		{
			"buffer":0,
			"byteLength":420,
			"byteOffset":46660,
			"target":34963
		},
		{
			"buffer":0,
			"byteLength":288,
			"byteOffset":47080,
			"target":34962
		},
		{
			"buffer":0,
			"byteLength":288,
			"byteOffset":47368,
			"target":34962
		},
		{
			"buffer":0,
			"byteLength":192,
			"byteOffset":47656,
			"target":34962
		},
		{
			"buffer":0,
			"byteLength":384,
			"byteOffset":47848,
			"target":34962
		},
		{
			"buffer":0,
			"byteLength":72,
			"byteOffset":48232,
			"target":34963
		},
		{
			"buffer":0,
			"byteLength":48,
			"byteOffset":48304,
			"target":34962
		},
		{
			"buffer":0,
			"byteLength":48,
			"byteOffset":48352,
			"target":34962
		},
		{
			"buffer":0,
			"byteLength":32,
			"byteOffset":48400,
			"target":34962
		},
		{
			"buffer":0,
			"byteLength":64,
			"byteOffset":48432,
			"target":34962
		},
		{
			"buffer":0,
			"byteLength":12,
			"byteOffset":48496,
			"target":34963
		},
		{
			"buffer":0,
			"byteLength":288,
			"byteOffset":48508,
			"target":34962
		},
		{
			"buffer":0,
			"byteLength":288,
			"byteOffset":48796,
			"target":34962
		},
		{
			"buffer":0,
			"byteLength":192,
			"byteOffset":49084,
			"target":34962
		},
		{
			"buffer":0,
			"byteLength":384,
			"byteOffset":49276,
			"target":34962
		}
	],
	"samplers":[
		{
			"magFilter":9728,
			"minFilter":9984
		},
		{
			"magFilter":9729,
			"minFilter":9987
		}
	],
	"buffers":[
		{
			"byteLength":49660,
			"uri":"MoonlitCafe.bin"
		}
	]
}
