{
	"asset":{
		"generator":"Khronos glTF Blender I/O v5.0.21",
		"version":"2.0"
	},
	"extensionsUsed":[
		"KHR_materials_specular",
		"KHR_texture_transform"
	],
	"extensionsRequired":[
		"KHR_texture_transform"
	],
	"scene":0,
	"scenes":[
		{
			"name":"Scene",
			"nodes":[
				0,
				1
			]
		}
	],
	"nodes":[
		{
			"mesh":0,
			"name":"Environment"
		},
		{
			"mesh":1,
			"name":"Ceiling"
		}
	],
	"materials":[
		{
			"extensions":{
				"KHR_materials_specular":{
					"specularColorFactor":[
						2.0,
						2.0,
						2.0
					]
				}
			},
			"name":"cafe_wall_mi",
			"normalTexture":{
				"extensions":{
					"KHR_texture_transform":{
						"offset":[
							0,
							-4.639000058174133
						],
						"scale":[
							4.5,
							4.5
						]
					}
				},
				"index":0
			},
			"pbrMetallicRoughness":{
				"baseColorTexture":{
					"extensions":{
						"KHR_texture_transform":{
							"offset":[
								0,
								-4.639000058174133
							],
							"scale":[
								4.5,
								4.5
							]
						}
					},
					"index":1
				},
				"metallicFactor":0,
				"roughnessFactor":0.5
			}
		},
		{
			"doubleSided":true,
			"extensions":{
				"KHR_materials_specular":{
					"specularColorFactor":[
						2.0,
						2.0,
						2.0
					]
				}
			},
			"name":"cafe_floor_hm_Inst4",
			"normalTexture":{
				"extensions":{
					"KHR_texture_transform":{
						"offset":[
							0,
							-2
						],
						"scale":[
							3,
							3
						]
					}
				},
				"index":2
			},
			"pbrMetallicRoughness":{
				"baseColorTexture":{
					"extensions":{
						"KHR_texture_transform":{
							"offset":[
								0,
								-2
							],
							"scale":[
								3,
								3
							]
						}
					},
					"index":3
				},
				"metallicFactor":0,
				"metallicRoughnessTexture":{
					"extensions":{
						"KHR_texture_transform":{
							"offset":[
								0,
								-2
							],
							"scale":[
								3,
								3
							]
						}
					},
					"index":4
				}
			}
		},
		{
			"extensions":{
				"KHR_materials_specular":{
					"specularColorFactor":[
						2.0,
						2.0,
						2.0
					]
				}
			},
			"name":"cafe_ceiling",
			"normalTexture":{
				"extensions":{
					"KHR_texture_transform":{
						"offset":[
							0,
							-4.639000058174133
						],
						"scale":[
							4.5,
							4.5
						]
					}
				},
				"index":5
			},
			"pbrMetallicRoughness":{
				"baseColorTexture":{
					"extensions":{
						"KHR_texture_transform":{
							"offset":[
								0,
								-4.639000058174133
							],
							"scale":[
								4.5,
								4.5
							]
						}
					},
					"index":6
				},
				"metallicFactor":0,
				"roughnessFactor":0.5527864098548889
			}
		}
	],
	"meshes":[
		{
			"name":"Cube.003",
			"primitives":[
				{
					"attributes":{
						"POSITION":0,
						"NORMAL":1,
						"TEXCOORD_0":2,
						"TEXCOORD_1":3,
						"TEXCOORD_2":4,
						"TANGENT":5
					},
					"indices":6,
					"material":0
				},
				{
					"attributes":{
						"POSITION":7,
						"NORMAL":8,
						"TEXCOORD_0":9,
						"TEXCOORD_1":10,
						"TEXCOORD_2":11,
						"TANGENT":12
					},
					"indices":13,
					"material":1
				}
			]
		},
		{
			"name":"CubeGridToolOutput_F1C43FB0.004",
			"primitives":[
				{
					"attributes":{
						"POSITION":14,
						"NORMAL":15,
						"TEXCOORD_0":16,
						"TEXCOORD_1":17,
						"TANGENT":18
					},
					"indices":19,
					"material":2
				}
			]
		}
	],
	"textures":[
		{
			"sampler":0,
			"source":0
		},
		{
			"sampler":0,
			"source":1
		},
		{
			"sampler":0,
			"source":2
		},
		{
			"sampler":0,
			"source":3
		},
		{
			"sampler":0,
			"source":4
		},
		{
			"sampler":0,
			"source":5
		},
		{
			"sampler":0,
			"source":6
		}
	],
	"images":[
		{
			"mimeType":"image/png",
			"name":"Wall_INST_normal_512",
			"uri":"Wall_INST_normal_512.png"
		},
		{
			"mimeType":"image/png",
			"name":"Wall_INST_basecolor_512",
			"uri":"Wall_INST_basecolor_512.png"
		},
		{
			"mimeType":"image/png",
			"name":"Floor_INST_normal_512",
			"uri":"Floor_INST_normal_512.png"
		},
		{
			"mimeType":"image/png",
			"name":"Floor_INST_basecolor_512",
			"uri":"Floor_INST_basecolor_512.png"
		},
		{
			"mimeType":"image/png",
			"name":"Floor_INST_roughness_512",
			"uri":"Floor_INST_roughness_512.png"
		},
		{
			"mimeType":"image/png",
			"name":"Ceiling_INST_normal_512",
			"uri":"Ceiling_INST_normal_512.png"
		},
		{
			"mimeType":"image/png",
			"name":"Ceiling_INST_basecolor_512",
			"uri":"Ceiling_INST_basecolor_512.png"
		}
	],
	"accessors":[
		{
			"bufferView":0,
			"componentType":5126,
			"count":418,
			"max":[
				25.790525436401367,
				11.032549858093262,
				23.9945068359375
			],
			"min":[
				-26.209869384765625,
				0.041047122329473495,
				-26.0054874420166
			],
			"type":"VEC3"
		},
		{
			"bufferView":1,
			"componentType":5126,
			"count":418,
			"type":"VEC3"
		},
		{
			"bufferView":2,
			"componentType":5126,
			"count":418,
			"type":"VEC2"
		},
		{
			"bufferView":3,
			"componentType":5126,
			"count":418,
			"type":"VEC2"
		},
		{
			"bufferView":4,
			"componentType":5126,
			"count":418,
			"type":"VEC2"
		},
		{
			"bufferView":5,
			"componentType":5126,
			"count":418,
			"type":"VEC4"
		},
		{
			"bufferView":6,
			"componentType":5123,
			"count":849,
			"type":"SCALAR"
		},
		{
			"bufferView":7,
			"componentType":5126,
			"count":158,
			"max":[
				25.790525436401367,
				11.032549858093262,
				23.9945068359375
			],
			"min":[
				-26.209869384765625,
				-7.232134521473199e-05,
				-26.0054874420166
			],
			"type":"VEC3"
		},
		{
			"bufferView":8,
			"componentType":5126,
			"count":158,
			"type":"VEC3"
		},
		{
			"bufferView":9,
			"componentType":5126,
			"count":158,
			"type":"VEC2"
		},
		{
			"bufferView":10,
			"componentType":5126,
			"count":158,
			"type":"VEC2"
		},
		{
			"bufferView":11,
			"componentType":5126,
			"count":158,
			"type":"VEC2"
		},
		{
			"bufferView":12,
			"componentType":5126,
			"count":158,
			"type":"VEC4"
		},
		{
			"bufferView":13,
			"componentType":5123,
			"count":426,
			"type":"SCALAR"
		},
		{
			"bufferView":14,
			"componentType":5126,
			"count":36,
			"max":[
				25.594999313354492,
				10.965505599975586,
				23.900253295898438
			],
			"min":[
				-26.150497436523438,
				10.965459823608398,
				-25.826101303100586
			],
			"type":"VEC3"
		},
		{
			"bufferView":15,
			"componentType":5126,
			"count":36,
			"type":"VEC3"
		},
		{
			"bufferView":16,
			"componentType":5126,
			"count":36,
			"type":"VEC2"
		},
		{
			"bufferView":17,
			"componentType":5126,
			"count":36,
			"type":"VEC2"
		},
		{
			"bufferView":18,
			"componentType":5126,
			"count":36,
			"type":"VEC4"
		},
		{
			"bufferView":19,
			"componentType":5123,
			"count":150,
			"type":"SCALAR"
		}
	],
	"bufferViews":[
		{
			"buffer":0,
			"byteLength":5016,
			"byteOffset":0,
			"target":34962
		},
		{
			"buffer":0,
			"byteLength":5016,
			"byteOffset":5016,
			"target":34962
		},
		{
			"buffer":0,
			"byteLength":3344,
			"byteOffset":10032,
			"target":34962
		},
		{
			"buffer":0,
			"byteLength":3344,
			"byteOffset":13376,
			"target":34962
		},
		{
			"buffer":0,
			"byteLength":3344,
			"byteOffset":16720,
			"target":34962
		},
		{
			"buffer":0,
			"byteLength":6688,
			"byteOffset":20064,
			"target":34962
		},
		{
			"buffer":0,
			"byteLength":1698,
			"byteOffset":26752,
			"target":34963
		},
		{
			"buffer":0,
			"byteLength":1896,
			"byteOffset":28452,
			"target":34962
		},
		{
			"buffer":0,
			"byteLength":1896,
			"byteOffset":30348,
			"target":34962
		},
		{
			"buffer":0,
			"byteLength":1264,
			"byteOffset":32244,
			"target":34962
		},
		{
			"buffer":0,
			"byteLength":1264,
			"byteOffset":33508,
			"target":34962
		},
		{
			"buffer":0,
			"byteLength":1264,
			"byteOffset":34772,
			"target":34962
		},
		{
			"buffer":0,
			"byteLength":2528,
			"byteOffset":36036,
			"target":34962
		},
		{
			"buffer":0,
			"byteLength":852,
			"byteOffset":38564,
			"target":34963
		},
		{
			"buffer":0,
			"byteLength":432,
			"byteOffset":39416,
			"target":34962
		},
		{
			"buffer":0,
			"byteLength":432,
			"byteOffset":39848,
			"target":34962
		},
		{
			"buffer":0,
			"byteLength":288,
			"byteOffset":40280,
			"target":34962
		},
		{
			"buffer":0,
			"byteLength":288,
			"byteOffset":40568,
			"target":34962
		},
		{
			"buffer":0,
			"byteLength":576,
			"byteOffset":40856,
			"target":34962
		},
		{
			"buffer":0,
			"byteLength":300,
			"byteOffset":41432,
			"target":34963
		}
	],
	"samplers":[
		{
			"magFilter":9728,
			"minFilter":9984
		}
	],
	"buffers":[
		{
			"byteLength":41732,
			"uri":"MoonlitCafe.bin"
		}
	]
}
