# Blender 4.4.3
# www.blender.org
o Circle.001
v 0.000000 -0.001255 1.098078
v -0.214224 -0.001255 1.076978
v -0.420216 -0.001255 1.014491
v -0.610059 -0.001255 0.913018
v -0.776458 -0.001255 0.776458
v -0.913018 -0.001255 0.610059
v -1.014491 -0.001255 0.420216
v -1.076978 -0.001255 0.214224
v -1.098078 -0.001255 0.000000
v -1.076978 -0.001255 -0.214224
v -1.014491 -0.001255 -0.420216
v -0.913018 -0.001255 -0.610059
v -0.776458 -0.001255 -0.776458
v -0.610059 -0.001255 -0.913018
v -0.420216 -0.001255 -1.014491
v -0.214224 -0.001255 -1.076978
v 0.000000 -0.001255 -1.098078
v 0.214224 -0.001255 -1.076978
v 0.420216 -0.001255 -1.014491
v 0.610059 -0.001255 -0.913018
v 0.776458 -0.001255 -0.776458
v 0.913018 -0.001255 -0.610059
v 1.014491 -0.001255 -0.420216
v 1.076978 -0.001255 -0.214224
v 1.098078 -0.001255 0.000000
v 1.076978 -0.001255 0.214224
v 1.014491 -0.001255 0.420216
v 0.913018 -0.001255 0.610059
v 0.776458 -0.001255 0.776458
v 0.610059 -0.001255 0.913018
v 0.420216 -0.001255 1.014491
v 0.214224 -0.001255 1.076978
v 0.000000 -0.302364 0.355399
v -0.069335 -0.302364 0.348570
v -0.136005 -0.302364 0.328346
v -0.197449 -0.302364 0.295504
v -0.251305 -0.302364 0.251305
v -0.295504 -0.302364 0.197449
v -0.328346 -0.302364 0.136005
v -0.348570 -0.302364 0.069335
v -0.355399 -0.302364 0.000000
v -0.348570 -0.302364 -0.069335
v -0.328346 -0.302364 -0.136005
v -0.295504 -0.302364 -0.197449
v -0.251305 -0.302364 -0.251305
v -0.197449 -0.302364 -0.295504
v -0.136005 -0.302364 -0.328346
v -0.069335 -0.302364 -0.348570
v 0.000000 -0.302364 -0.355399
v 0.069335 -0.302364 -0.348570
v 0.136005 -0.302364 -0.328346
v 0.197449 -0.302364 -0.295504
v 0.251305 -0.302364 -0.251305
v 0.295504 -0.302364 -0.197449
v 0.328346 -0.302364 -0.136005
v 0.348570 -0.302364 -0.069335
v 0.355399 -0.302364 0.000000
v 0.348570 -0.302364 0.069335
v 0.328346 -0.302364 0.136005
v 0.295504 -0.302364 0.197449
v 0.251305 -0.302364 0.251305
v 0.197449 -0.302364 0.295504
v 0.136005 -0.302364 0.328346
v 0.069335 -0.302364 0.348570
v -0.214224 -0.088235 1.076978
v 0.000000 -0.088235 1.098078
v -0.420216 -0.088235 1.014491
v -0.610059 -0.088235 0.913018
v -0.776458 -0.088235 0.776458
v -0.913018 -0.088235 0.610059
v -1.014491 -0.088235 0.420216
v -1.076978 -0.088235 0.214224
v -1.098078 -0.088235 0.000000
v -1.076978 -0.088235 -0.214224
v -1.014491 -0.088235 -0.420216
v -0.913018 -0.088235 -0.610059
v -0.776458 -0.088235 -0.776458
v -0.610059 -0.088235 -0.913018
v -0.420216 -0.088235 -1.014491
v -0.214224 -0.088235 -1.076978
v 0.000000 -0.088235 -1.098078
v 0.214224 -0.088235 -1.076978
v 0.420216 -0.088235 -1.014491
v 0.610059 -0.088235 -0.913018
v 0.776458 -0.088235 -0.776458
v 0.913018 -0.088235 -0.610059
v 1.014491 -0.088235 -0.420216
v 1.076978 -0.088235 -0.214224
v 1.098078 -0.088235 0.000000
v 1.076978 -0.088235 0.214224
v 1.014491 -0.088235 0.420216
v 0.913018 -0.088235 0.610059
v 0.776458 -0.088235 0.776458
v 0.610059 -0.088235 0.913018
v 0.420216 -0.088235 1.014491
v 0.214224 -0.088235 1.076978
v -0.179350 -0.161007 0.901651
v 0.000000 -0.161007 0.919316
v -0.351807 -0.161007 0.849337
v -0.510744 -0.161007 0.764383
v -0.650054 -0.161007 0.650054
v -0.764383 -0.161007 0.510744
v -0.849337 -0.161007 0.351807
v -0.901651 -0.161007 0.179350
v -0.919316 -0.161007 0.000000
v -0.901651 -0.161007 -0.179350
v -0.849337 -0.161007 -0.351807
v -0.764383 -0.161007 -0.510744
v -0.650054 -0.161007 -0.650054
v -0.510744 -0.161007 -0.764383
v -0.351807 -0.161007 -0.849337
v -0.179350 -0.161007 -0.901651
v 0.000000 -0.161007 -0.919316
v 0.179350 -0.161007 -0.901651
v 0.351807 -0.161007 -0.849337
v 0.510744 -0.161007 -0.764383
v 0.650054 -0.161007 -0.650054
v 0.764383 -0.161007 -0.510744
v 0.849337 -0.161007 -0.351807
v 0.901651 -0.161007 -0.179350
v 0.919316 -0.161007 0.000000
v 0.901651 -0.161007 0.179350
v 0.849337 -0.161007 0.351807
v 0.764383 -0.161007 0.510744
v 0.650054 -0.161007 0.650054
v 0.510744 -0.161007 0.764383
v 0.351807 -0.161007 0.849337
v 0.179350 -0.161007 0.901651
v -0.144591 -0.227541 0.726908
v 0.000000 -0.227541 0.741149
v -0.283625 -0.227541 0.684732
v -0.411760 -0.227541 0.616243
v -0.524071 -0.227541 0.524071
v -0.616243 -0.227541 0.411760
v -0.684732 -0.227541 0.283625
v -0.726908 -0.227541 0.144591
v -0.741149 -0.227541 0.000000
v -0.726908 -0.227541 -0.144591
v -0.684732 -0.227541 -0.283625
v -0.616243 -0.227541 -0.411760
v -0.524071 -0.227541 -0.524071
v -0.411760 -0.227541 -0.616243
v -0.283625 -0.227541 -0.684732
v -0.144591 -0.227541 -0.726908
v 0.000000 -0.227541 -0.741149
v 0.144591 -0.227541 -0.726908
v 0.283625 -0.227541 -0.684732
v 0.411760 -0.227541 -0.616243
v 0.524071 -0.227541 -0.524071
v 0.616243 -0.227541 -0.411760
v 0.684732 -0.227541 -0.283625
v 0.726908 -0.227541 -0.144591
v 0.741149 -0.227541 0.000000
v 0.726908 -0.227541 0.144591
v 0.684732 -0.227541 0.283625
v 0.616243 -0.227541 0.411760
v 0.524071 -0.227541 0.524071
v 0.411760 -0.227541 0.616243
v 0.283625 -0.227541 0.684732
v 0.144591 -0.227541 0.726908
v -0.109375 -0.263120 0.549867
v 0.000000 -0.263120 0.560639
v -0.214547 -0.263120 0.517963
v -0.311475 -0.263120 0.466154
v -0.396432 -0.263120 0.396432
v -0.466154 -0.263120 0.311475
v -0.517963 -0.263120 0.214547
v -0.549867 -0.263120 0.109375
v -0.560639 -0.263120 0.000000
v -0.549867 -0.263120 -0.109375
v -0.517963 -0.263120 -0.214547
v -0.466154 -0.263120 -0.311475
v -0.396432 -0.263120 -0.396432
v -0.311475 -0.263120 -0.466154
v -0.214547 -0.263120 -0.517963
v -0.109375 -0.263120 -0.549867
v 0.000000 -0.263120 -0.560639
v 0.109375 -0.263120 -0.549867
v 0.214547 -0.263120 -0.517963
v 0.311475 -0.263120 -0.466154
v 0.396432 -0.263120 -0.396432
v 0.466154 -0.263120 -0.311475
v 0.517963 -0.263120 -0.214547
v 0.549867 -0.263120 -0.109375
v 0.560639 -0.263120 0.000000
v 0.549867 -0.263120 0.109375
v 0.517963 -0.263120 0.214547
v 0.466154 -0.263120 0.311475
v 0.396432 -0.263120 0.396432
v 0.311475 -0.263120 0.466154
v 0.214547 -0.263120 0.517963
v 0.109375 -0.263120 0.549867
vn -0.0000 -0.0000 1.0000
vn -0.1951 -0.0000 0.9808
vn -0.3827 -0.0000 0.9239
vn -0.5556 -0.0000 0.8315
vn -0.7071 -0.0000 0.7071
vn -0.8315 -0.0000 0.5556
vn -0.9239 -0.0000 0.3827
vn -0.9808 -0.0000 0.1951
vn -1.0000 -0.0000 -0.0000
vn -0.9808 -0.0000 -0.1951
vn -0.9239 -0.0000 -0.3827
vn -0.8315 -0.0000 -0.5556
vn -0.7071 -0.0000 -0.7071
vn -0.5556 -0.0000 -0.8315
vn -0.3827 -0.0000 -0.9239
vn -0.1951 -0.0000 -0.9808
vn -0.0000 -0.0000 -1.0000
vn 0.1951 -0.0000 -0.9808
vn 0.3827 -0.0000 -0.9239
vn 0.5556 -0.0000 -0.8315
vn 0.7071 -0.0000 -0.7071
vn 0.8315 -0.0000 -0.5556
vn 0.9239 -0.0000 -0.3827
vn 0.9808 -0.0000 -0.1951
vn 1.0000 -0.0000 -0.0000
vn 0.9808 -0.0000 0.1951
vn 0.9239 -0.0000 0.3827
vn 0.8315 -0.0000 0.5556
vn 0.7071 -0.0000 0.7071
vn 0.5556 -0.0000 0.8315
vn 0.3827 -0.0000 0.9239
vn 0.1951 -0.0000 0.9808
vn -0.0000 -0.9950 0.1002
vn -0.0195 -0.9950 0.0982
vn -0.0383 -0.9950 0.0925
vn -0.0556 -0.9950 0.0833
vn -0.0708 -0.9950 0.0708
vn -0.0833 -0.9950 0.0556
vn -0.0925 -0.9950 0.0383
vn -0.0982 -0.9950 0.0195
vn -0.1002 -0.9950 -0.0000
vn -0.0982 -0.9950 -0.0195
vn -0.0925 -0.9950 -0.0383
vn -0.0833 -0.9950 -0.0556
vn -0.0708 -0.9950 -0.0708
vn -0.0556 -0.9950 -0.0833
vn -0.0383 -0.9950 -0.0925
vn -0.0195 -0.9950 -0.0982
vn -0.0000 -0.9950 -0.1002
vn 0.0195 -0.9950 -0.0982
vn 0.0383 -0.9950 -0.0925
vn 0.0556 -0.9950 -0.0833
vn 0.0708 -0.9950 -0.0708
vn 0.0833 -0.9950 -0.0556
vn 0.0925 -0.9950 -0.0383
vn 0.0982 -0.9950 -0.0195
vn 0.1002 -0.9950 -0.0000
vn 0.0982 -0.9950 0.0195
vn 0.0925 -0.9950 0.0383
vn 0.0833 -0.9950 0.0556
vn 0.0708 -0.9950 0.0708
vn 0.0556 -0.9950 0.0833
vn 0.0383 -0.9950 0.0925
vn 0.0195 -0.9950 0.0982
vn -0.1639 -0.5425 0.8239
vn -0.0000 -0.5425 0.8400
vn -0.3215 -0.5425 0.7761
vn -0.4667 -0.5425 0.6985
vn -0.5940 -0.5425 0.5940
vn -0.6985 -0.5425 0.4667
vn -0.7761 -0.5425 0.3215
vn -0.8239 -0.5425 0.1639
vn -0.8400 -0.5425 -0.0000
vn -0.8239 -0.5425 -0.1639
vn -0.7761 -0.5425 -0.3215
vn -0.6985 -0.5425 -0.4667
vn -0.5940 -0.5425 -0.5940
vn -0.4667 -0.5425 -0.6985
vn -0.3215 -0.5425 -0.7761
vn -0.1639 -0.5425 -0.8239
vn -0.0000 -0.5425 -0.8400
vn 0.1639 -0.5425 -0.8239
vn 0.3215 -0.5425 -0.7761
vn 0.4667 -0.5425 -0.6985
vn 0.5940 -0.5425 -0.5940
vn 0.6985 -0.5425 -0.4667
vn 0.7761 -0.5425 -0.3215
vn 0.8239 -0.5425 -0.1639
vn 0.8400 -0.5425 -0.0000
vn 0.8239 -0.5425 0.1639
vn 0.7761 -0.5425 0.3215
vn 0.6985 -0.5425 0.4667
vn 0.5940 -0.5425 0.5940
vn 0.4667 -0.5425 0.6985
vn 0.3215 -0.5425 0.7761
vn 0.1639 -0.5425 0.8239
vn -0.0711 -0.9313 0.3573
vn -0.0000 -0.9313 0.3643
vn -0.1394 -0.9313 0.3365
vn -0.2024 -0.9313 0.3029
vn -0.2576 -0.9313 0.2576
vn -0.3029 -0.9313 0.2024
vn -0.3365 -0.9313 0.1394
vn -0.3573 -0.9313 0.0711
vn -0.3643 -0.9313 -0.0000
vn -0.3573 -0.9313 -0.0711
vn -0.3365 -0.9313 -0.1394
vn -0.3029 -0.9313 -0.2024
vn -0.2576 -0.9313 -0.2576
vn -0.2024 -0.9313 -0.3029
vn -0.1394 -0.9313 -0.3365
vn -0.0711 -0.9313 -0.3573
vn -0.0000 -0.9313 -0.3643
vn 0.0711 -0.9313 -0.3573
vn 0.1394 -0.9313 -0.3365
vn 0.2024 -0.9313 -0.3029
vn 0.2576 -0.9313 -0.2576
vn 0.3029 -0.9313 -0.2024
vn 0.3365 -0.9313 -0.1394
vn 0.3573 -0.9313 -0.0711
vn 0.3643 -0.9313 -0.0000
vn 0.3573 -0.9313 0.0711
vn 0.3365 -0.9313 0.1394
vn 0.3029 -0.9313 0.2024
vn 0.2576 -0.9313 0.2576
vn 0.2024 -0.9313 0.3029
vn 0.1394 -0.9313 0.3365
vn 0.0711 -0.9313 0.3573
vn -0.0541 -0.9608 0.2719
vn -0.0000 -0.9608 0.2772
vn -0.1061 -0.9608 0.2561
vn -0.1540 -0.9608 0.2305
vn -0.1960 -0.9608 0.1960
vn -0.2305 -0.9608 0.1540
vn -0.2561 -0.9608 0.1061
vn -0.2719 -0.9608 0.0541
vn -0.2772 -0.9608 -0.0000
vn -0.2719 -0.9608 -0.0541
vn -0.2561 -0.9608 -0.1061
vn -0.2305 -0.9608 -0.1540
vn -0.1960 -0.9608 -0.1960
vn -0.1540 -0.9608 -0.2305
vn -0.1061 -0.9608 -0.2561
vn -0.0541 -0.9608 -0.2719
vn -0.0000 -0.9608 -0.2772
vn 0.0541 -0.9608 -0.2719
vn 0.1061 -0.9608 -0.2561
vn 0.1540 -0.9608 -0.2305
vn 0.1960 -0.9608 -0.1960
vn 0.2305 -0.9608 -0.1540
vn 0.2561 -0.9608 -0.1061
vn 0.2719 -0.9608 -0.0541
vn 0.2772 -0.9608 -0.0000
vn 0.2719 -0.9608 0.0541
vn 0.2561 -0.9608 0.1061
vn 0.2305 -0.9608 0.1540
vn 0.1960 -0.9608 0.1960
vn 0.1540 -0.9608 0.2305
vn 0.1061 -0.9608 0.2561
vn 0.0541 -0.9608 0.2719
vn -0.0372 -0.9816 0.1871
vn -0.0000 -0.9816 0.1908
vn -0.0730 -0.9816 0.1762
vn -0.1060 -0.9816 0.1586
vn -0.1349 -0.9816 0.1349
vn -0.1586 -0.9816 0.1060
vn -0.1762 -0.9816 0.0730
vn -0.1871 -0.9816 0.0372
vn -0.1908 -0.9816 -0.0000
vn -0.1871 -0.9816 -0.0372
vn -0.1762 -0.9816 -0.0730
vn -0.1586 -0.9816 -0.1060
vn -0.1349 -0.9816 -0.1349
vn -0.1060 -0.9816 -0.1586
vn -0.0730 -0.9816 -0.1762
vn -0.0372 -0.9816 -0.1871
vn -0.0000 -0.9816 -0.1908
vn 0.0372 -0.9816 -0.1871
vn 0.0730 -0.9816 -0.1762
vn 0.1060 -0.9816 -0.1586
vn 0.1349 -0.9816 -0.1349
vn 0.1586 -0.9816 -0.1060
vn 0.1762 -0.9816 -0.0730
vn 0.1871 -0.9816 -0.0372
vn 0.1908 -0.9816 -0.0000
vn 0.1871 -0.9816 0.0372
vn 0.1762 -0.9816 0.0730
vn 0.1586 -0.9816 0.1060
vn 0.1349 -0.9816 0.1349
vn 0.1060 -0.9816 0.1586
vn 0.0730 -0.9816 0.1762
vn 0.0372 -0.9816 0.1871
vt 0.891014 0.816843
vt 0.874966 0.803773
vt 0.926508 0.724427
vt 0.944834 0.733992
vt 0.350650 0.019277
vt 0.356607 0.039102
vt 0.269195 0.075453
vt 0.259378 0.057221
vt 0.357010 0.980955
vt 0.362917 0.961226
vt 0.455387 0.979498
vt 0.453308 1.000000
vt 0.821292 0.886853
vt 0.808085 0.870881
vt 0.447415 -0.000000
vt 0.449374 0.020563
vt 0.265772 0.944556
vt 0.275308 0.926283
vt 0.545825 -0.000000
vt 0.543747 0.020502
vt 0.183102 0.891005
vt 0.196051 0.874896
vt 0.642124 0.019044
vt 0.636217 0.038774
vt 0.112299 0.822097
vt 0.128248 0.808905
vt 0.733362 0.055443
vt 0.723826 0.073717
vt 0.057249 0.740011
vt 0.075526 0.730293
vt 0.816032 0.108995
vt 0.803083 0.125104
vt 0.019420 0.648892
vt 0.039202 0.642948
vt 0.886835 0.177903
vt 0.870886 0.191095
vt 0.000157 0.552384
vt 0.020672 0.550411
vt 0.941885 0.259989
vt 0.923608 0.269707
vt 0.000000 0.454192
vt 0.020509 0.456129
vt 0.979714 0.351108
vt 0.959932 0.357052
vt 0.017883 0.357571
vt 0.037673 0.363360
vt 0.998977 0.447616
vt 0.978462 0.449589
vt 0.054300 0.266008
vt 0.072626 0.275573
vt 0.739756 0.942779
vt 0.729939 0.924547
vt 0.999134 0.545808
vt 0.978625 0.543871
vt 0.108119 0.183157
vt 0.124167 0.196227
vt 0.648484 0.980723
vt 0.642527 0.960898
vt 0.981251 0.642429
vt 0.961461 0.636641
vt 0.177842 0.113148
vt 0.191049 0.129119
vt 0.551719 1.000000
vt 0.549760 0.979437
vt 0.571820 0.633226
vt 0.544429 0.644773
vt 0.515319 0.650752
vt 0.485609 0.650936
vt 0.456440 0.645323
vt 0.428923 0.634122
vt 0.404118 0.617764
vt 0.382983 0.596881
vt 0.366317 0.572276
vt 0.354775 0.544894
vt 0.348803 0.515792
vt 0.348625 0.486090
vt 0.354240 0.456921
vt 0.365444 0.429401
vt 0.381808 0.404589
vt 0.402701 0.383447
vt 0.427314 0.366774
vt 0.454705 0.355227
vt 0.483815 0.349247
vt 0.513525 0.349064
vt 0.542694 0.354677
vt 0.570211 0.365878
vt 0.595016 0.382236
vt 0.616151 0.403119
vt 0.632816 0.427724
vt 0.644359 0.455106
vt 0.650331 0.484208
vt 0.650509 0.513910
vt 0.644894 0.543079
vt 0.633690 0.570599
vt 0.617326 0.595411
vt 0.596433 0.616553
vt 0.690291 0.851640
vt 0.755276 0.807468
vt 0.617735 0.882013
vt 0.540860 0.897520
vt 0.462625 0.897709
vt 0.386123 0.882804
vt 0.313758 0.853660
vt 0.248194 0.810821
vt 0.192058 0.755738
vt 0.148047 0.690531
vt 0.117808 0.618189
vt 0.102296 0.541518
vt 0.101968 0.463562
vt 0.116413 0.386900
vt 0.145609 0.314192
vt 0.188647 0.248394
vt 0.243858 0.192532
vt 0.308842 0.148360
vt 0.381399 0.117987
vt 0.458274 0.102480
vt 0.536509 0.102291
vt 0.613011 0.117196
vt 0.685376 0.146340
vt 0.750939 0.189179
vt 0.807076 0.244262
vt 0.851087 0.309469
vt 0.881326 0.381811
vt 0.896838 0.458482
vt 0.897166 0.536438
vt 0.882721 0.613100
vt 0.853524 0.685808
vt 0.810486 0.751607
vt 0.651733 0.780522
vt 0.703553 0.745317
vt 0.593955 0.804752
vt 0.532653 0.817185
vt 0.470180 0.817539
vt 0.408901 0.805678
vt 0.351105 0.782179
vt 0.298798 0.747945
vt 0.254217 0.703952
vt 0.219129 0.652072
vt 0.194919 0.594407
vt 0.182435 0.533200
vt 0.182076 0.470804
vt 0.193802 0.409507
vt 0.217277 0.351596
vt 0.251556 0.299217
vt 0.295581 0.254683
vt 0.347401 0.219478
vt 0.405179 0.195248
vt 0.466481 0.182815
vt 0.528953 0.182461
vt 0.590233 0.194322
vt 0.648029 0.217821
vt 0.700336 0.252055
vt 0.744917 0.296048
vt 0.780004 0.347928
vt 0.804215 0.405593
vt 0.816698 0.466800
vt 0.817058 0.529197
vt 0.805332 0.590493
vt 0.781857 0.648404
vt 0.747578 0.700784
vt 0.614196 0.711352
vt 0.653261 0.684903
vt 0.570724 0.729646
vt 0.524542 0.739087
vt 0.477441 0.739350
vt 0.431203 0.730454
vt 0.387591 0.712704
vt 0.348219 0.686810
vt 0.314676 0.653677
vt 0.288227 0.614641
vt 0.269947 0.571196
vt 0.260494 0.525045
vt 0.260209 0.477954
vt 0.269099 0.431713
vt 0.286832 0.388073
vt 0.312730 0.348669
vt 0.345873 0.315097
vt 0.384938 0.288648
vt 0.428410 0.270354
vt 0.474592 0.260913
vt 0.521693 0.260650
vt 0.567931 0.269545
vt 0.611543 0.287296
vt 0.650915 0.313190
vt 0.684458 0.346323
vt 0.710907 0.385359
vt 0.729187 0.428804
vt 0.738639 0.474955
vt 0.738925 0.522046
vt 0.730035 0.568287
vt 0.712302 0.611927
vt 0.686403 0.651331
s 1
f 32/1/32 96/2/96 95/3/95 31/4/31
f 19/5/19 83/6/83 82/7/82 18/8/18
f 6/9/6 70/10/70 69/11/69 5/12/5
f 1/13/1 66/14/66 96/2/96 32/1/32
f 20/15/20 84/16/84 83/6/83 19/5/19
f 7/17/7 71/18/71 70/10/70 6/9/6
f 21/19/21 85/20/85 84/16/84 20/15/20
f 8/21/8 72/22/72 71/18/71 7/17/7
f 22/23/22 86/24/86 85/20/85 21/19/21
f 9/25/9 73/26/73 72/22/72 8/21/8
f 23/27/23 87/28/87 86/24/86 22/23/22
f 10/29/10 74/30/74 73/26/73 9/25/9
f 24/31/24 88/32/88 87/28/87 23/27/23
f 11/33/11 75/34/75 74/30/74 10/29/10
f 25/35/25 89/36/89 88/32/88 24/31/24
f 12/37/12 76/38/76 75/34/75 11/33/11
f 26/39/26 90/40/90 89/36/89 25/35/25
f 13/41/13 77/42/77 76/38/76 12/37/12
f 27/43/27 91/44/91 90/40/90 26/39/26
f 14/45/14 78/46/78 77/42/77 13/41/13
f 28/47/28 92/48/92 91/44/91 27/43/27
f 15/49/15 79/50/79 78/46/78 14/45/14
f 2/51/2 65/52/65 66/14/66 1/13/1
f 29/53/29 93/54/93 92/48/92 28/47/28
f 16/55/16 80/56/80 79/50/79 15/49/15
f 3/57/3 67/58/67 65/52/65 2/51/2
f 30/59/30 94/60/94 93/54/93 29/53/29
f 17/61/17 81/62/81 80/56/80 16/55/16
f 4/63/4 68/64/68 67/58/67 3/57/3
f 31/4/31 95/3/95 94/60/94 30/59/30
f 18/8/18 82/7/82 81/62/81 17/61/17
f 5/12/5 69/11/69 68/64/68 4/63/4
f 34/65/34 35/66/35 36/67/36 37/68/37 38/69/38 39/70/39 40/71/40 41/72/41 42/73/42 43/74/43 44/75/44 45/76/45 46/77/46 47/78/47 48/79/48 49/80/49 50/81/50 51/82/51 52/83/52 53/84/53 54/85/54 55/86/55 56/87/56 57/88/57 58/89/58 59/90/59 60/91/60 61/92/61 62/93/62 63/94/63 64/95/64 33/96/33
f 97/97/97 98/98/98 66/14/66 65/52/65
f 99/99/99 97/97/97 65/52/65 67/58/67
f 100/100/100 99/99/99 67/58/67 68/64/68
f 101/101/101 100/100/100 68/64/68 69/11/69
f 102/102/102 101/101/101 69/11/69 70/10/70
f 103/103/103 102/102/102 70/10/70 71/18/71
f 104/104/104 103/103/103 71/18/71 72/22/72
f 105/105/105 104/104/104 72/22/72 73/26/73
f 106/106/106 105/105/105 73/26/73 74/30/74
f 107/107/107 106/106/106 74/30/74 75/34/75
f 108/108/108 107/107/107 75/34/75 76/38/76
f 109/109/109 108/108/108 76/38/76 77/42/77
f 110/110/110 109/109/109 77/42/77 78/46/78
f 111/111/111 110/110/110 78/46/78 79/50/79
f 112/112/112 111/111/111 79/50/79 80/56/80
f 113/113/113 112/112/112 80/56/80 81/62/81
f 114/114/114 113/113/113 81/62/81 82/7/82
f 115/115/115 114/114/114 82/7/82 83/6/83
f 116/116/116 115/115/115 83/6/83 84/16/84
f 117/117/117 116/116/116 84/16/84 85/20/85
f 118/118/118 117/117/117 85/20/85 86/24/86
f 119/119/119 118/118/118 86/24/86 87/28/87
f 120/120/120 119/119/119 87/28/87 88/32/88
f 121/121/121 120/120/120 88/32/88 89/36/89
f 122/122/122 121/121/121 89/36/89 90/40/90
f 123/123/123 122/122/122 90/40/90 91/44/91
f 124/124/124 123/123/123 91/44/91 92/48/92
f 125/125/125 124/124/124 92/48/92 93/54/93
f 126/126/126 125/125/125 93/54/93 94/60/94
f 127/127/127 126/126/126 94/60/94 95/3/95
f 128/128/128 127/127/127 95/3/95 96/2/96
f 98/98/98 128/128/128 96/2/96 66/14/66
f 129/129/129 130/130/130 98/98/98 97/97/97
f 131/131/131 129/129/129 97/97/97 99/99/99
f 132/132/132 131/131/131 99/99/99 100/100/100
f 133/133/133 132/132/132 100/100/100 101/101/101
f 134/134/134 133/133/133 101/101/101 102/102/102
f 135/135/135 134/134/134 102/102/102 103/103/103
f 136/136/136 135/135/135 103/103/103 104/104/104
f 137/137/137 136/136/136 104/104/104 105/105/105
f 138/138/138 137/137/137 105/105/105 106/106/106
f 139/139/139 138/138/138 106/106/106 107/107/107
f 140/140/140 139/139/139 107/107/107 108/108/108
f 141/141/141 140/140/140 108/108/108 109/109/109
f 142/142/142 141/141/141 109/109/109 110/110/110
f 143/143/143 142/142/142 110/110/110 111/111/111
f 144/144/144 143/143/143 111/111/111 112/112/112
f 145/145/145 144/144/144 112/112/112 113/113/113
f 146/146/146 145/145/145 113/113/113 114/114/114
f 147/147/147 146/146/146 114/114/114 115/115/115
f 148/148/148 147/147/147 115/115/115 116/116/116
f 149/149/149 148/148/148 116/116/116 117/117/117
f 150/150/150 149/149/149 117/117/117 118/118/118
f 151/151/151 150/150/150 118/118/118 119/119/119
f 152/152/152 151/151/151 119/119/119 120/120/120
f 153/153/153 152/152/152 120/120/120 121/121/121
f 154/154/154 153/153/153 121/121/121 122/122/122
f 155/155/155 154/154/154 122/122/122 123/123/123
f 156/156/156 155/155/155 123/123/123 124/124/124
f 157/157/157 156/156/156 124/124/124 125/125/125
f 158/158/158 157/157/157 125/125/125 126/126/126
f 159/159/159 158/158/158 126/126/126 127/127/127
f 160/160/160 159/159/159 127/127/127 128/128/128
f 130/130/130 160/160/160 128/128/128 98/98/98
f 161/161/161 162/162/162 130/130/130 129/129/129
f 163/163/163 161/161/161 129/129/129 131/131/131
f 164/164/164 163/163/163 131/131/131 132/132/132
f 165/165/165 164/164/164 132/132/132 133/133/133
f 166/166/166 165/165/165 133/133/133 134/134/134
f 167/167/167 166/166/166 134/134/134 135/135/135
f 168/168/168 167/167/167 135/135/135 136/136/136
f 169/169/169 168/168/168 136/136/136 137/137/137
f 170/170/170 169/169/169 137/137/137 138/138/138
f 171/171/171 170/170/170 138/138/138 139/139/139
f 172/172/172 171/171/171 139/139/139 140/140/140
f 173/173/173 172/172/172 140/140/140 141/141/141
f 174/174/174 173/173/173 141/141/141 142/142/142
f 175/175/175 174/174/174 142/142/142 143/143/143
f 176/176/176 175/175/175 143/143/143 144/144/144
f 177/177/177 176/176/176 144/144/144 145/145/145
f 178/178/178 177/177/177 145/145/145 146/146/146
f 179/179/179 178/178/178 146/146/146 147/147/147
f 180/180/180 179/179/179 147/147/147 148/148/148
f 181/181/181 180/180/180 148/148/148 149/149/149
f 182/182/182 181/181/181 149/149/149 150/150/150
f 183/183/183 182/182/182 150/150/150 151/151/151
f 184/184/184 183/183/183 151/151/151 152/152/152
f 185/185/185 184/184/184 152/152/152 153/153/153
f 186/186/186 185/185/185 153/153/153 154/154/154
f 187/187/187 186/186/186 154/154/154 155/155/155
f 188/188/188 187/187/187 155/155/155 156/156/156
f 189/189/189 188/188/188 156/156/156 157/157/157
f 190/190/190 189/189/189 157/157/157 158/158/158
f 191/191/191 190/190/190 158/158/158 159/159/159
f 192/192/192 191/191/191 159/159/159 160/160/160
f 162/162/162 192/192/192 160/160/160 130/130/130
f 34/65/34 33/96/33 162/162/162 161/161/161
f 35/66/35 34/65/34 161/161/161 163/163/163
f 36/67/36 35/66/35 163/163/163 164/164/164
f 37/68/37 36/67/36 164/164/164 165/165/165
f 38/69/38 37/68/37 165/165/165 166/166/166
f 39/70/39 38/69/38 166/166/166 167/167/167
f 40/71/40 39/70/39 167/167/167 168/168/168
f 41/72/41 40/71/40 168/168/168 169/169/169
f 42/73/42 41/72/41 169/169/169 170/170/170
f 43/74/43 42/73/42 170/170/170 171/171/171
f 44/75/44 43/74/43 171/171/171 172/172/172
f 45/76/45 44/75/44 172/172/172 173/173/173
f 46/77/46 45/76/45 173/173/173 174/174/174
f 47/78/47 46/77/46 174/174/174 175/175/175
f 48/79/48 47/78/47 175/175/175 176/176/176
f 49/80/49 48/79/48 176/176/176 177/177/177
f 50/81/50 49/80/49 177/177/177 178/178/178
f 51/82/51 50/81/50 178/178/178 179/179/179
f 52/83/52 51/82/51 179/179/179 180/180/180
f 53/84/53 52/83/52 180/180/180 181/181/181
f 54/85/54 53/84/53 181/181/181 182/182/182
f 55/86/55 54/85/54 182/182/182 183/183/183
f 56/87/56 55/86/55 183/183/183 184/184/184
f 57/88/57 56/87/56 184/184/184 185/185/185
f 58/89/58 57/88/57 185/185/185 186/186/186
f 59/90/59 58/89/58 186/186/186 187/187/187
f 60/91/60 59/90/59 187/187/187 188/188/188
f 61/92/61 60/91/60 188/188/188 189/189/189
f 62/93/62 61/92/61 189/189/189 190/190/190
f 63/94/63 62/93/62 190/190/190 191/191/191
f 64/95/64 63/94/63 191/191/191 192/192/192
f 33/96/33 64/95/64 192/192/192 162/162/162
