{
	"asset":{
		"generator":"Khronos glTF Blender I/O v4.5.47",
		"version":"2.0"
	},
	"extensionsUsed":[
		"KHR_materials_unlit"
	],
	"scene":0,
	"scenes":[
		{
			"name":"Scene",
			"nodes":[
				0,
				1,
				2
			]
		}
	],
	"nodes":[
		{
			"mesh":0,
			"name":"Circle.001"
		},
		{
			"mesh":1,
			"name":"Grass"
		},
		{
			"mesh":2,
			"name":"Cat"
		}
	],
	"materials":[
		{
			"doubleSided":true,
			"extensions":{
				"KHR_materials_unlit":{}
			},
			"name":"Ground",
			"pbrMetallicRoughness":{
				"baseColorTexture":{
					"index":0
				},
				"metallicFactor":0,
				"roughnessFactor":0.9
			}
		},
		{
			"doubleSided":true,
			"extensions":{
				"KHR_materials_unlit":{}
			},
			"name":"Grass",
			"pbrMetallicRoughness":{
				"baseColorTexture":{
					"index":1
				},
				"metallicFactor":0,
				"roughnessFactor":0.9
			}
		},
		{
			"doubleSided":true,
			"extensions":{
				"KHR_materials_unlit":{}
			},
			"name":"bakedNormals",
			"pbrMetallicRoughness":{
				"baseColorTexture":{
					"index":2
				},
				"metallicFactor":0,
				"roughnessFactor":0.9
			}
		}
	],
	"meshes":[
		{
			"name":"Circle.002",
			"primitives":[
				{
					"attributes":{
						"POSITION":0,
						"NORMAL":1,
						"TEXCOORD_0":2
					},
					"indices":3,
					"material":0
				}
			]
		},
		{
			"name":"NurbsPath.010",
			"primitives":[
				{
					"attributes":{
						"POSITION":4,
						"NORMAL":5,
						"TEXCOORD_0":6,
						"TANGENT":7
					},
					"indices":8,
					"material":1
				}
			]
		},
		{
			"name":"Lowpoly.003",
			"primitives":[
				{
					"attributes":{
						"POSITION":9,
						"NORMAL":10,
						"TEXCOORD_0":11,
						"TANGENT":12
					},
					"indices":13,
					"material":2
				}
			]
		}
	],
	"textures":[
		{
			"sampler":0,
			"source":0
		},
		{
			"sampler":0,
			"source":1
		},
		{
			"sampler":0,
			"source":2
		}
	],
	"images":[
		{
			"mimeType":"image/png",
			"name":"ground",
			"uri":"../textures/ground.png"
		},
		{
			"mimeType":"image/png",
			"name":"grass",
			"uri":"../textures/grass.png"
		},
		{
			"mimeType":"image/png",
			"name":"PaintedTextures_diffuse_v3",
			"uri":"../textures/PaintedTextures_diffuse_v3.png"
		}
	],
	"accessors":[
		{
			"bufferView":0,
			"componentType":5126,
			"count":192,
			"max":[
				10.980774879455566,
				10.980774879455566,
				3.0236446857452393
			],
			"min":[
				-10.980774879455566,
				-10.980774879455566,
				0.012550115585327148
			],
			"type":"VEC3"
		},
		{
			"bufferView":1,
			"componentType":5126,
			"count":192,
			"type":"VEC3"
		},
		{
			"bufferView":2,
			"componentType":5126,
			"count":192,
			"type":"VEC2"
		},
		{
			"bufferView":3,
			"componentType":5123,
			"count":1050,
			"type":"SCALAR"
		},
		{
			"bufferView":4,
			"componentType":5126,
			"count":553,
			"max":[
				10.454547882080078,
				11.586163520812988,
				7.235026836395264
			],
			"min":[
				-13.7542724609375,
				-7.240204334259033,
				0.3383263945579529
			],
			"type":"VEC3"
		},
		{
			"bufferView":5,
			"componentType":5126,
			"count":553,
			"type":"VEC3"
		},
		{
			"bufferView":6,
			"componentType":5126,
			"count":553,
			"type":"VEC2"
		},
		{
			"bufferView":7,
			"componentType":5126,
			"count":553,
			"type":"VEC4"
		},
		{
			"bufferView":8,
			"componentType":5123,
			"count":2382,
			"type":"SCALAR"
		},
		{
			"bufferView":9,
			"componentType":5126,
			"count":3652,
			"max":[
				6.8827900886535645,
				13.897762298583984,
				18.44388771057129
			],
			"min":[
				-6.8827900886535645,
				-13.954113006591797,
				2.2034718990325928
			],
			"type":"VEC3"
		},
		{
			"bufferView":10,
			"componentType":5126,
			"count":3652,
			"type":"VEC3"
		},
		{
			"bufferView":11,
			"componentType":5126,
			"count":3652,
			"type":"VEC2"
		},
		{
			"bufferView":12,
			"componentType":5126,
			"count":3652,
			"type":"VEC4"
		},
		{
			"bufferView":13,
			"componentType":5123,
			"count":17895,
			"type":"SCALAR"
		}
	],
	"bufferViews":[
		{
			"buffer":0,
			"byteLength":2304,
			"byteOffset":0,
			"target":34962
		},
		{
			"buffer":0,
			"byteLength":2304,
			"byteOffset":2304,
			"target":34962
		},
		{
			"buffer":0,
			"byteLength":1536,
			"byteOffset":4608,
			"target":34962
		},
		{
			"buffer":0,
			"byteLength":2100,
			"byteOffset":6144,
			"target":34963
		},
		{
			"buffer":0,
			"byteLength":6636,
			"byteOffset":8244,
			"target":34962
		},
		{
			"buffer":0,
			"byteLength":6636,
			"byteOffset":14880,
			"target":34962
		},
		{
			"buffer":0,
			"byteLength":4424,
			"byteOffset":21516,
			"target":34962
		},
		{
			"buffer":0,
			"byteLength":8848,
			"byteOffset":25940,
			"target":34962
		},
		{
			"buffer":0,
			"byteLength":4764,
			"byteOffset":34788,
			"target":34963
		},
		{
			"buffer":0,
			"byteLength":43824,
			"byteOffset":39552,
			"target":34962
		},
		{
			"buffer":0,
			"byteLength":43824,
			"byteOffset":83376,
			"target":34962
		},
		{
			"buffer":0,
			"byteLength":29216,
			"byteOffset":127200,
			"target":34962
		},
		{
			"buffer":0,
			"byteLength":58432,
			"byteOffset":156416,
			"target":34962
		},
		{
			"buffer":0,
			"byteLength":35790,
			"byteOffset":214848,
			"target":34963
		}
	],
	"samplers":[
		{
			"magFilter":9729,
			"minFilter":9987
		}
	],
	"buffers":[
		{
			"byteLength":250640,
			"uri":"dewstalker.bin"
		}
	]
}
