# Blender 4.4.3
# www.blender.org
o Floor.001
v 1.904821 -0.013591 -2.996461
v 1.904821 -5.509342 -2.996461
v 1.904821 -0.013591 -1.998639
v 1.904821 -5.509342 -1.998639
v 8.896242 -0.013591 -2.996461
v 8.896242 -5.509342 -2.996461
v 8.896242 -0.013591 -1.998639
v 8.896242 -5.509342 -1.998639
v 2.900738 -0.013591 -1.998639
v 2.900738 -5.509342 -1.998639
v 2.900738 -0.013591 -2.996461
v 2.900738 -5.509342 -2.996461
v 1.895152 -0.013591 -9.997549
v 1.895152 -5.509342 -9.997549
v 2.895152 -5.509342 -9.997549
v 2.895152 -0.013591 -9.997549
v 10.895152 -5.509342 -0.997550
v 10.895152 -0.013591 -0.997550
v 22.895151 -0.013591 -1.997550
v 22.895151 -5.509342 -1.997550
v 10.895152 -5.509342 0.002450
v 10.895152 -0.013591 0.002450
v 22.895151 -0.013591 -2.997550
v 22.895151 -5.509342 -2.997550
v 14.895152 -5.509342 -0.997550
v 14.895152 -0.013591 -0.997550
v 14.895152 -5.509342 0.002450
v 14.895152 -0.013591 0.002450
v 16.895153 -5.509342 -2.997550
v 16.895153 -0.013591 -2.997550
v 16.895153 -5.509342 -1.997550
v 16.895153 -0.013591 -1.997550
v 23.895153 -0.013591 -1.997550
v 23.895153 -5.509342 -1.997550
v 23.895153 -0.013591 -2.997550
v 23.895153 -5.509342 -2.997550
v 22.895151 -5.509342 -9.997549
v 22.895151 -0.013591 -9.997549
v 23.895153 -5.509342 -9.997549
v 23.895153 -0.013591 -9.997549
v 24.895151 -5.509342 -11.997548
v 24.895151 -0.013591 -11.997548
v 25.895151 -5.509342 -11.997548
v 25.895151 -0.013591 -11.997548
v 24.895151 -5.509342 -13.997549
v 24.895151 -0.013591 -13.997549
v 25.895151 -5.509342 -13.997549
v 25.895151 -0.013591 -13.997549
v 22.895151 -5.509342 -15.997549
v 22.895151 -0.013591 -15.997549
v 23.895153 -5.509342 -15.997549
v 23.895153 -0.013591 -15.997549
v 22.895151 -5.509342 -21.997547
v 22.895151 -0.013591 -21.997547
v 23.895153 -5.509342 -21.997547
v 23.895153 -0.013591 -21.997547
v 22.895151 -5.509342 -22.997547
v 22.895151 -0.013591 -22.997547
v 23.895153 -5.509342 -22.997547
v 23.895153 -0.013591 -22.997547
v 16.895151 -5.509342 -21.997547
v 16.895151 -0.013591 -21.997547
v 16.895151 -5.509342 -22.997547
v 16.895151 -0.013591 -22.997547
v 14.895151 -5.509342 -23.997547
v 14.895151 -0.013591 -23.997547
v 14.895151 -5.509342 -24.997547
v 14.895151 -0.013591 -24.997547
v 10.895152 -5.509342 -23.997547
v 10.895152 -0.013591 -23.997547
v 10.895152 -5.509342 -24.997547
v 10.895152 -0.013591 -24.997547
v 8.895152 -5.509342 -21.997547
v 8.895152 -0.013591 -21.997547
v 8.895152 -5.509342 -22.997547
v 8.895152 -0.013591 -22.997547
v 2.895152 -5.509342 -21.997547
v 2.895152 -0.013591 -21.997547
v 2.895152 -5.509342 -22.997547
v 2.895152 -0.013591 -22.997547
v 1.895152 -5.509342 -21.997547
v 1.895152 -0.013591 -21.997547
v 1.895152 -5.509342 -22.997547
v 1.895152 -0.013591 -22.997547
v 2.895152 -5.509342 -15.997549
v 2.895152 -0.013591 -15.997549
v 1.895152 -5.509342 -15.997549
v 1.895152 -0.013591 -15.997549
v 0.895152 -5.509342 -13.997549
v 0.895152 -0.013591 -13.997549
v -0.104847 -5.509342 -13.997549
v -0.104847 -0.013591 -13.997549
v 0.895152 -5.509342 -11.997548
v 0.895152 -0.013591 -11.997548
v -0.104847 -5.509342 -11.997548
v -0.104847 -0.013591 -11.997548
v 1.903436 -5.509342 -3.999083
v 1.896537 -5.509342 -8.994922
v 2.895952 -5.509342 -8.994921
v 2.899938 -5.509342 -3.999083
v 2.895952 -0.013591 -8.994921
v 2.899938 -0.013591 -3.999083
v 1.896537 -0.013591 -8.994921
v 1.903436 -0.013591 -3.999083
v 1.903436 -1.505156 -3.999083
v 1.896537 -1.505156 -8.994922
v 2.895952 -1.505156 -8.994921
v 2.899938 -1.505156 -3.999083
v 10.895152 -1.509342 0.002450
v 10.895152 -1.509342 -0.997550
v 14.895152 -1.509342 0.002450
v 14.895152 -1.509342 -0.997550
v 2.895152 -0.013591 -20.989704
v 2.895152 -0.013591 -17.005390
v 1.895152 -0.013591 -17.005390
v 1.895152 -0.013591 -20.989704
v 1.895152 -5.509342 -17.005390
v 1.895152 -5.509342 -20.989704
v 2.895152 -5.509342 -17.005390
v 2.895152 -5.509342 -20.989704
v 1.895152 -1.509342 -17.005390
v 1.895152 -1.509342 -20.989704
v 2.895152 -1.509342 -17.005390
v 2.895152 -1.509342 -20.989704
v 21.805088 -0.013591 -1.997550
v 17.985210 -0.013591 -1.997550
v 21.805088 -0.013591 -2.997550
v 17.985210 -0.013591 -2.997550
v 21.805088 -5.509342 -2.997550
v 17.985210 -5.509342 -2.997550
v 17.985210 -5.509342 -1.997550
v 21.805088 -5.509342 -1.997550
v 21.805088 -2.209342 -2.997550
v 17.985210 -2.209342 -2.997550
v 17.985210 -2.209342 -1.997550
v 21.805088 -2.209342 -1.997550
v 15.895150 -5.509342 -23.997547
v 15.895150 -5.509342 -22.997547
v 15.895150 -0.013591 -22.997547
v 15.895150 -0.013591 -23.997547
v 16.895151 -5.509342 -8.997549
v 15.895174 -5.509342 -8.997549
v 15.895174 -0.013591 -8.997549
v 15.895150 -0.013591 -10.002551
v 15.895150 -5.509342 -10.002551
v 16.895151 -0.013591 -10.003916
v 16.895151 -5.509342 -10.003916
v 22.895151 -5.509342 -8.999579
v 22.895151 -0.013591 -8.999579
v 23.895153 -5.509342 -8.999579
v 23.895153 -0.013591 -8.999579
v 22.895151 -0.749955 -2.997550
v 16.895153 -0.749955 -2.997550
v 21.805088 -0.749956 -2.997550
v 17.985210 -0.749956 -2.997550
v 16.895151 -0.749955 -8.997549
v 22.895151 -0.749955 -8.999579
v 16.895151 -0.749955 -5.997549
v 16.895151 -0.749955 -4.497550
v 16.202120 -0.013591 -2.304517
v 16.895151 -0.504501 -8.997549
v 16.895153 -0.504501 -2.997550
v 16.228500 -5.509342 -8.997549
v 16.561827 -5.509342 -8.997549
v 16.228500 -0.013591 -8.997549
v 16.561827 -0.504501 -8.997549
v 16.561827 -0.259046 -8.997549
v 16.228500 -0.259046 -8.997549
v 16.548635 -0.259046 -2.651033
v 16.548635 -0.504501 -2.651033
v 16.202120 -0.259046 -2.304517
v 16.228485 -5.509342 -2.330883
v 16.561819 -5.509342 -2.664217
v 15.895150 -5.509342 -17.995689
v 15.895150 -5.509342 -19.996262
v 16.895151 -5.509342 -17.995689
v 16.895151 -5.509342 -19.996277
v 15.895150 -0.013591 -19.996277
v 15.895150 -0.013591 -17.995701
v 16.895151 -0.013591 -19.996277
v 16.895151 -0.013591 -17.995689
v 15.895150 -3.513775 -17.995689
v 15.895150 -3.513775 -19.996262
v 16.895151 -3.513775 -17.995689
v 16.895151 -3.513775 -19.996277
v 0.895152 -3.504049 -13.997549
v -0.104847 -3.504049 -13.997549
v 0.895152 -3.504049 -11.997548
v -0.104847 -3.504049 -11.997548
v 23.877594 0.006969 -1.990307
v 1.893372 0.006969 -1.990307
v 23.877594 0.006969 -22.947037
v 1.893372 0.006969 -22.947037
v 23.877594 0.006969 -15.979374
v 25.830816 0.006969 -13.973258
v 25.830816 0.006969 -11.985055
v 23.877594 0.006969 -9.996852
v 16.914429 0.006969 -1.990307
v 14.976664 0.006969 -0.072923
v 10.847920 0.006969 -0.072923
v 8.946269 0.006969 -1.990307
v 1.893372 0.006969 -9.996852
v -0.041931 0.006969 -11.985055
v -0.041931 0.006969 -13.973258
v 1.893372 0.006969 -15.979374
v 8.946269 0.006969 -22.947037
v 10.847920 0.006969 -24.936096
v 14.976664 0.006969 -24.936100
v 16.914429 0.006969 -22.947037
v 20.904064 0.006969 -7.012669
v 20.904064 0.006969 -10.987346
v 20.904064 0.006969 -14.962023
v 20.904064 0.006969 -18.972511
v 15.774583 0.006969 -7.012670
v 15.774583 0.006969 -10.987346
v 15.774583 0.006969 -14.962023
v 15.774583 0.006969 -18.972511
v 10.031960 0.006969 -7.012670
v 10.031960 0.006969 -10.987346
v 10.031960 0.006969 -14.962023
v 10.031960 0.006969 -18.972507
v 4.974676 0.006969 -7.012669
v 4.974676 0.006969 -10.987346
v 4.974676 0.006969 -14.962023
v 4.974676 0.006969 -18.972511
vn -1.0000 -0.0000 -0.0000
vn -0.0000 -0.0000 1.0000
vn 0.7071 -0.0000 0.7071
vn -0.0000 -1.0000 -0.0000
vn -0.0000 1.0000 -0.0000
vn -0.0000 -0.0000 -1.0000
vn 1.0000 -0.0000 -0.0008
vn -1.0000 -0.0000 0.0014
vn 1.0000 -0.0000 -0.0000
vn -0.7071 -0.0000 -0.7071
vn 0.7071 -0.0000 -0.7071
vn -0.7071 -0.0000 0.7071
vn -0.7075 -0.0000 0.7067
vn 0.0011 -0.0000 -1.0000
vn 0.0003 -0.0000 1.0000
vn -1.0000 -0.0000 -0.0021
vn -1.0000 -0.0000 -0.0039
vt 0.843117 0.424892
vt 0.843117 0.636267
vt 0.881495 0.636267
vt 0.881495 0.424892
vt 0.120111 0.424892
vt 0.120111 0.636267
vt 0.350707 0.636267
vt 0.350707 0.424892
vt 0.658358 0.636267
vt 0.658358 0.424892
vt 0.581435 0.424892
vt 0.581435 0.482421
vt 0.581435 0.636267
vt 0.778339 0.340164
vt 0.778339 0.297740
vt 0.735778 0.297681
vt 0.735778 0.340130
vt 0.120111 0.881495
vt 0.350707 0.881495
vt 0.350707 0.843117
vt 0.120111 0.843117
vt 0.498076 0.203174
vt 0.456810 0.212359
vt 0.447608 0.171014
vt 0.488873 0.161829
vt 0.746499 0.147879
vt 0.737296 0.106534
vt 0.081807 0.881495
vt 0.081807 0.843117
vt 0.081807 0.424892
vt 0.081807 0.636267
vt 0.612407 0.636267
vt 0.573845 0.636267
vt 0.573845 0.424892
vt 0.612407 0.424892
vt 0.612407 0.482260
vt 0.081488 0.612407
vt 0.119927 0.612407
vt 0.119896 0.573845
vt 0.081435 0.573845
vt 0.847201 0.881537
vt 0.889127 0.881537
vt 0.889127 0.843076
vt 0.847201 0.843076
vt 0.700283 0.424892
vt 0.700283 0.636267
vt 0.700283 0.509344
vt 0.279753 0.045391
vt 0.322108 0.042567
vt 0.319284 0.000212
vt 0.276929 0.003036
vt 0.838556 0.170924
vt 0.847779 0.212359
vt 0.919999 0.636267
vt 0.919999 0.482421
vt 0.958460 0.482421
vt 0.958460 0.636267
vt 0.427589 0.958460
vt 0.427589 0.919999
vt 0.889127 0.636267
vt 0.847201 0.636267
vt 0.847201 0.509344
vt 0.847201 0.453214
vt 0.889127 0.453214
vt 0.889127 0.424892
vt 0.847201 0.424892
vt 0.427589 0.424892
vt 0.427589 0.482421
vt 0.581435 0.958460
vt 0.581435 0.919999
vt 0.233583 0.048469
vt 0.230760 0.006114
vt 0.594550 0.724683
vt 0.516282 0.707921
vt 0.496715 0.703731
vt 0.477149 0.699541
vt 0.500213 0.735176
vt 0.617615 0.760319
vt 0.658358 0.881537
vt 0.658358 0.843076
vt 0.631703 0.869731
vt 0.843076 0.424892
vt 0.881537 0.424892
vt 0.881537 0.636267
vt 0.843076 0.636267
vt 0.296701 0.299606
vt 0.299519 0.341875
vt 0.341874 0.339051
vt 0.339056 0.296782
vt 0.927589 0.636267
vt 0.927589 0.424892
vt 0.927589 0.881537
vt 0.927589 0.843076
vt 0.389876 0.420937
vt 0.432231 0.418113
vt 0.612228 0.636267
vt 0.573845 0.636267
vt 0.573845 0.424892
vt 0.612228 0.424892
vt 0.927589 0.612228
vt 0.927589 0.573845
vt 0.889127 0.573845
vt 0.889127 0.612228
vt 0.395524 0.505647
vt 0.437878 0.502823
vt 0.966050 0.424892
vt 0.966050 0.636267
vt 1.004512 0.496922
vt 0.966050 0.496922
vt 1.004512 0.636267
vt 1.004512 0.424892
vt 1.004512 0.419999
vt 0.927589 0.343076
vt 0.889127 0.343076
vt 0.966050 0.419999
vt 0.496922 0.424892
vt 0.419999 0.424892
vt 0.419999 0.636267
vt 0.496922 0.636267
vt 0.316461 0.596004
vt 0.333404 0.850133
vt 0.375759 0.847310
vt 0.358816 0.593180
vt 0.343076 0.636267
vt 0.343076 0.424892
vt 0.658358 0.424892
vt 0.658358 0.636267
vt 0.112306 0.424892
vt 0.112306 0.636267
vt 0.927589 0.112306
vt 0.889127 0.112306
vt 0.927589 0.073845
vt 0.889127 0.073845
vt 0.073845 0.636267
vt 0.073845 0.424892
vt 0.336228 0.892488
vt 0.378582 0.889664
vt 0.039743 0.912254
vt 0.000212 0.957433
vt 0.003036 0.999788
vt 0.042567 0.954609
vt 0.079275 0.867076
vt 0.082098 0.909431
vt 0.658358 0.073845
vt 0.658358 0.112306
vt 0.035383 0.424892
vt 0.035383 0.636267
vt -0.003078 0.636267
vt -0.003078 0.424892
vt 0.619896 0.424892
vt 0.619896 0.636267
vt 0.619896 0.035383
vt 0.581435 -0.003078
vt 0.581435 0.035383
vt 0.619896 0.073845
vt 0.427589 0.636267
vt 0.350666 0.636267
vt 0.350666 0.424892
vt 0.737650 0.000212
vt 0.489022 0.055463
vt 0.498230 0.096901
vt 0.746859 0.041650
vt 0.838943 0.064672
vt 0.848152 0.106110
vt 0.427589 -0.003078
vt 0.350666 0.073845
vt 0.350666 0.112306
vt 0.427589 0.035383
vt 0.119896 0.073845
vt 0.081435 0.073845
vt 0.081435 0.112306
vt 0.119896 0.112306
vt 0.119896 0.424892
vt 0.119896 0.636267
vt 0.081435 0.636267
vt 0.081435 0.424892
vt 0.447584 0.064672
vt 0.456792 0.106110
vt 0.081435 0.304312
vt 0.081435 0.343076
vt 0.119896 0.343076
vt 0.119896 0.304312
vt 0.004512 0.419999
vt 0.042973 0.419999
vt 0.151070 0.636267
vt 0.151070 0.482421
vt 0.151070 0.424892
vt 0.438303 0.340130
vt 0.481085 0.340130
vt 0.481085 0.297681
vt 0.438303 0.297681
vt 0.565983 0.255232
vt 0.650881 0.255232
vt 0.650881 0.212783
vt 0.565983 0.212783
vt 0.419999 0.559141
vt 0.004512 0.496922
vt 0.042973 0.496922
vt 0.042973 0.424892
vt 0.042973 0.559141
vt 0.004512 0.559141
vt 0.004512 0.424892
vt 0.496922 0.559141
vt 0.804555 0.424892
vt 0.804555 0.482260
vt 0.804555 0.636267
vt 0.120080 0.804555
vt 0.081753 0.804555
vt 0.438303 0.129483
vt 0.479593 0.120293
vt 0.650430 0.656815
vt 0.650371 0.699116
vt 0.438303 0.699116
vt 0.438362 0.656692
vt 0.120080 0.636267
vt 0.081753 0.636267
vt 0.081753 0.482260
vt 0.120080 0.482260
vt 0.081488 0.636267
vt 0.119927 0.636267
vt 0.119927 0.482260
vt 0.081488 0.482260
vt 0.608099 0.760743
vt 0.438303 0.760743
vt 0.438303 0.803192
vt 0.608099 0.803192
vt 0.304312 0.636267
vt 0.304312 0.482421
vt 0.304312 0.424892
vt 0.479741 0.013700
vt 0.438303 0.022908
vt 0.081435 0.151070
vt 0.119896 0.151070
vt 0.607433 0.803617
vt 0.438303 0.803617
vt 0.438303 0.846066
vt 0.607433 0.846066
vt 0.119896 0.482421
vt 0.081435 0.482421
vt 0.438303 0.724683
vt 0.461368 0.760319
vt 0.919999 0.424892
vt 0.658358 0.453214
vt 0.700283 0.453214
vt 0.700283 0.881537
vt 0.700283 0.843076
vt 0.958460 0.424892
vt 0.600453 0.846491
vt 0.438303 0.846491
vt 0.438303 0.888939
vt 0.600453 0.888939
vt 0.881537 0.509344
vt 0.843076 0.509344
vt 0.843076 0.636267
vt 0.573652 0.636267
vt 0.612306 0.636267
vt 0.612306 0.424892
vt 0.573652 0.424892
vt 0.632717 0.424892
vt 0.619897 0.424892
vt 0.619897 0.636267
vt 0.632717 0.636267
vt 0.632717 0.434333
vt 0.045408 0.359087
vt 0.042566 0.316462
vt 0.028448 0.317404
vt 0.014330 0.318345
vt 0.000212 0.319286
vt 0.003049 0.361853
vt 0.266224 0.424892
vt 0.573600 0.424892
vt 0.573600 0.636267
vt 0.266224 0.636267
vt 0.067974 0.697577
vt 0.025620 0.700401
vt 0.619896 0.266224
vt 0.619896 0.573652
vt 0.658358 0.573600
vt 0.658358 0.266224
vt 0.266224 0.424892
vt 0.266224 0.559515
vt 0.843076 0.453214
vt 0.612228 0.453214
vt 0.658358 0.443773
vt 0.438303 0.447845
vt 0.438303 0.401574
vt 0.501977 0.401574
vt 0.565650 0.401574
vt 0.692997 0.401574
vt 0.693083 0.656267
vt 0.438303 0.656267
vt 0.438303 0.609995
vt 0.658358 0.453214
vt 0.438344 0.352012
vt 0.438303 0.341593
vt 0.692995 0.340589
vt 0.693036 0.351008
vt 0.631703 0.424892
vt 0.631703 0.434333
vt 0.632717 0.636267
vt 0.707803 0.365659
vt 0.438400 0.366161
vt 0.707822 0.376078
vt 0.438420 0.376580
vt 0.722589 0.390730
vt 0.438475 0.390730
vt 0.722589 0.401149
vt 0.438475 0.401149
vt 0.645538 0.636267
vt 0.658358 0.443773
vt 0.645538 0.443773
vt 0.645537 0.636267
vt 0.645030 0.443773
vt 0.869731 0.434333
vt 0.856403 0.434333
vt 0.856403 0.443773
vt 0.855896 0.636267
vt 0.868717 0.636267
vt 0.189279 0.636267
vt 0.189279 0.559515
vt 0.189278 0.424892
vt 0.619896 0.189278
vt 0.658358 0.189278
vt 0.658358 0.559515
vt 0.619896 0.559515
vt 0.073624 0.782312
vt 0.031269 0.785135
vt 0.189278 0.636267
vt 0.189278 0.559515
vt 0.619896 0.189279
vt 0.619896 0.266224
vt 0.730437 0.193955
vt 0.614773 0.074884
vt 0.884026 0.074884
vt 0.884026 0.347430
vt 0.614773 0.924423
vt 0.730437 0.809517
vt 0.884025 0.655345
vt 0.884025 0.924423
vt 0.730437 0.611298
vt 0.960889 0.580464
vt 0.730437 0.389385
vt 0.960889 0.420916
vt 0.074192 0.924423
vt 0.074192 0.655345
vt 0.268271 0.809517
vt 0.383590 0.924423
vt 0.421865 0.809517
vt 0.460420 0.999902
vt 0.575459 0.809517
vt 0.537250 0.999902
vt 0.000098 0.580464
vt 0.268272 0.611298
vt 0.421865 0.611298
vt 0.575459 0.611298
vt 0.000098 0.420916
vt 0.268272 0.389385
vt 0.421866 0.389385
vt 0.575459 0.389385
vt 0.074192 0.347430
vt 0.268272 0.193955
vt 0.421866 0.193955
vt 0.575460 0.193955
vt 0.074192 0.074884
vt 0.383590 0.074884
vt 0.460420 0.000098
vt 0.537251 0.000098
vt 0.645538 0.434333
s 0
f 1/1/1 2/2/1 4/3/1 3/4/1
f 9/5/2 10/6/2 8/7/2 7/8/2
f 31/9/3 32/10/3 28/11/3 111/12/3 27/13/3
f 99/14/4 98/15/4 14/16/4 15/17/4
f 9/18/5 7/19/5 5/20/5 11/21/5
f 10/22/4 4/23/4 2/24/4 12/25/4
f 8/26/4 10/22/4 12/25/4 6/27/4
f 3/28/5 9/18/5 11/21/5 1/29/5
f 5/8/6 6/7/6 12/6/6 11/5/6
f 3/30/2 4/31/2 10/6/2 9/5/2
f 99/32/7 15/33/7 16/34/7 101/35/7 107/36/7
f 103/37/5 101/38/5 16/39/5 13/40/5
f 103/35/8 13/34/8 14/33/8 98/32/8 106/36/8
f 125/41/5 19/42/5 23/43/5 127/44/5
f 126/45/2 32/10/2 31/9/2 131/46/2 135/47/2
f 24/48/4 36/49/4 34/50/4 20/51/4
f 6/27/4 17/52/4 21/53/4 8/26/4
f 17/54/9 110/55/9 109/56/9 21/57/9
f 5/20/5 7/19/5 22/58/5 18/59/5
f 24/60/6 129/61/6 133/62/6 154/63/6 152/64/6
f 20/60/2 19/65/2 125/66/2 136/62/2 132/61/2
f 28/11/2 22/67/2 109/68/2 111/12/2
f 22/58/5 28/69/5 26/70/5 18/59/5
f 110/68/6 18/67/6 26/11/6 112/12/6
f 129/71/4 24/48/4 20/51/4 132/72/4
f 25/73/4 172/74/4 173/75/4 29/76/4 31/77/4 27/78/4
f 25/54/1 27/57/1 111/56/1 112/55/1
f 28/69/5 32/79/5 30/80/5 160/81/5 26/70/5
f 35/82/9 33/83/9 34/84/9 36/85/9
f 148/86/4 37/87/4 39/88/4 150/89/4
f 20/60/2 34/90/2 33/91/2 19/65/2
f 19/42/5 33/92/5 35/93/5 23/43/5
f 37/87/4 41/94/4 43/95/4 39/88/4
f 150/96/9 39/97/9 40/98/9 151/99/9
f 151/100/5 40/101/5 38/102/5 149/103/5
f 41/94/4 45/104/4 47/105/4 43/95/4
f 38/65/10 42/106/10 41/107/10 37/60/10
f 40/101/5 44/108/5 42/109/5 38/102/5
f 39/90/3 43/110/3 44/111/3 40/91/3
f 48/112/5 52/113/5 50/114/5 46/115/5
f 42/116/1 46/117/1 45/118/1 41/119/1
f 44/108/5 48/112/5 46/115/5 42/109/5
f 43/119/9 47/118/9 48/117/9 44/116/9
f 49/120/4 53/121/4 55/122/4 51/123/4
f 47/118/11 51/124/11 52/125/11 48/117/11
f 45/104/4 49/120/4 51/123/4 47/105/4
f 46/117/12 50/125/12 49/124/12 45/118/12
f 54/65/2 62/126/2 61/127/2 53/60/2
f 50/125/1 54/128/1 53/129/1 49/124/1
f 52/113/5 56/130/5 54/131/5 50/114/5
f 51/124/9 55/129/9 56/128/9 52/125/9
f 58/65/6 60/91/6 59/90/6 57/60/6
f 56/130/5 60/132/5 58/133/5 54/131/5
f 55/129/9 59/134/9 60/135/9 56/128/9
f 53/121/4 57/136/4 59/137/4 55/122/4
f 138/138/4 65/139/4 67/140/4 137/141/4
f 53/121/4 61/142/4 63/143/4 57/136/4
f 57/60/6 63/127/6 64/126/6 58/65/6
f 58/133/5 64/144/5 62/145/5 54/131/5
f 70/146/9 69/147/9 71/148/9 72/149/9
f 139/150/12 66/11/12 65/13/12 138/151/12
f 140/152/5 68/153/5 66/154/5 139/155/5
f 137/147/11 67/148/11 68/149/11 140/146/11
f 71/156/10 75/157/10 76/158/10 72/67/10
f 66/146/1 68/149/1 67/148/1 65/147/1
f 73/159/4 77/160/4 79/161/4 75/162/4
f 69/163/4 73/159/4 75/162/4 71/164/4
f 70/67/3 74/158/3 73/157/3 69/156/3
f 72/165/5 76/166/5 74/167/5 70/168/5
f 80/169/5 84/170/5 82/171/5 78/172/5
f 74/158/2 78/173/2 77/174/2 73/157/2
f 76/166/5 80/169/5 78/172/5 74/167/5
f 75/157/6 79/174/6 80/173/6 76/158/6
f 82/128/1 84/135/1 83/134/1 81/129/1
f 79/174/6 83/175/6 84/176/6 80/173/6
f 77/160/4 81/177/4 83/178/4 79/161/4
f 115/179/5 88/180/5 86/181/5 114/182/5
f 88/180/5 92/183/5 90/184/5 86/181/5
f 81/129/1 118/185/1 122/186/1 116/187/1 82/128/1
f 119/188/4 85/189/4 87/190/4 117/191/4
f 89/192/4 93/193/4 95/194/4 91/195/4
f 86/125/3 90/117/3 186/196/3 89/118/3 85/124/3
f 85/189/4 89/192/4 91/195/4 87/190/4
f 87/124/10 91/118/10 187/196/10 92/117/10 88/125/10
f 96/197/5 13/40/5 16/39/5 94/198/5
f 94/199/6 188/200/6 189/201/6 96/202/6
f 189/197/5 188/198/5 186/184/5 187/183/5
f 186/196/9 188/203/9 93/119/9 89/118/9
f 16/173/6 15/174/6 14/175/6 13/176/6
f 94/116/11 16/34/11 15/33/11 93/119/11 188/203/11
f 93/193/4 15/17/4 14/16/4 95/194/4
f 95/119/12 14/33/12 13/34/12 96/116/12 189/203/12
f 1/1/8 104/204/8 105/205/8 97/206/8 2/2/8
f 1/29/5 11/21/5 102/207/5 104/208/5
f 104/208/5 102/207/5 101/38/5 103/37/5
f 11/1/7 12/2/7 100/206/7 102/204/7
f 108/205/7 107/36/7 101/35/7 102/204/7
f 12/25/4 2/24/4 97/209/4 100/210/4
f 108/211/4 105/212/4 106/213/4 107/214/4
f 100/215/6 97/216/6 105/217/6 108/218/6
f 98/219/2 99/220/2 107/221/2 106/222/2
f 103/35/8 106/36/8 105/205/8 104/204/8
f 110/223/4 112/224/4 111/225/4 109/226/4
f 85/124/9 119/227/9 123/228/9 114/229/9 86/125/9
f 77/160/4 120/230/4 118/231/4 81/177/4
f 87/124/1 88/125/1 115/229/1 121/228/1 117/227/1
f 113/187/9 114/229/9 123/228/9 124/186/9
f 82/171/5 116/232/5 113/233/5 78/172/5
f 116/232/5 115/179/5 114/182/5 113/233/5
f 124/234/4 123/235/4 121/236/4 122/237/4
f 116/187/1 122/186/1 121/228/1 115/229/1
f 120/174/2 124/238/2 122/239/2 118/175/2
f 117/175/6 121/239/6 123/238/6 119/174/6
f 29/76/4 130/240/4 131/241/4 31/77/4
f 6/2/11 5/1/11 18/242/11 110/55/11 17/54/11
f 153/243/6 155/244/6 134/47/6 130/46/6 29/9/6
f 125/66/2 126/45/2 135/47/2 136/62/2
f 32/79/5 126/245/5 128/246/5 30/80/5
f 126/245/5 125/41/5 127/44/5 128/246/5
f 8/3/13 21/57/13 109/56/13 22/247/13 7/4/13
f 134/47/6 155/244/6 154/63/6 133/62/6
f 134/248/4 133/249/4 136/250/4 135/251/4
f 132/84/1 136/252/1 133/253/1 129/254/1
f 63/127/11 137/151/11 140/150/11 64/126/11
f 64/144/5 140/152/5 139/155/5 62/145/5
f 145/255/1 142/256/1 143/257/1 144/258/1
f 61/142/4 138/138/4 137/141/4 63/143/4
f 165/259/2 143/260/2 142/261/2 163/262/2 168/263/2
f 147/264/4 141/265/4 164/266/4 163/267/4 142/268/4 145/269/4
f 181/270/9 146/271/9 147/272/9 176/273/9
f 176/274/4 147/264/4 145/269/4 174/275/4
f 179/276/5 144/277/5 146/278/5 181/279/5
f 174/273/1 145/255/1 144/258/1 179/280/1 182/281/1
f 147/264/4 37/87/4 148/86/4 141/265/4
f 146/126/14 38/65/14 37/60/14 147/127/14
f 35/93/5 151/100/5 149/103/5 23/43/5
f 152/282/1 157/283/1 148/96/1 24/85/1
f 36/85/9 150/96/9 151/99/9 35/82/9
f 24/48/4 148/86/4 150/89/4 36/49/4
f 127/66/6 23/65/6 152/64/6 154/63/6
f 23/82/1 149/99/1 157/283/1 152/282/1
f 128/45/6 127/66/6 154/63/6 155/244/6
f 128/45/6 155/244/6 153/243/6 162/284/6 30/10/6
f 155/285/4 153/286/4 159/287/4 158/288/4 156/289/4 157/290/4 152/291/4 154/292/4
f 141/127/15 148/60/15 157/64/15 156/293/15
f 161/294/1 156/295/1 153/296/1 162/297/1
f 112/12/10 26/11/10 160/298/10 171/299/10 172/300/10 25/13/10
f 162/297/4 170/301/4 166/302/4 161/294/4
f 166/302/16 170/301/16 169/303/16 167/304/16
f 171/305/4 168/306/4 167/304/4 169/303/4
f 168/306/17 171/305/17 160/307/17 165/308/17
f 164/309/2 141/127/2 156/293/2 161/310/2 166/311/2
f 29/9/10 173/312/10 170/313/10 162/284/10 153/243/10
f 171/314/10 169/315/10 170/316/10 173/317/10 172/318/10
f 138/134/1 175/319/1 183/320/1 178/321/1 139/135/1
f 139/155/5 178/322/5 180/323/5 62/145/5
f 181/126/6 184/324/6 182/325/6 179/150/6
f 61/142/4 177/326/4 175/327/4 138/138/4
f 176/273/9 177/328/9 185/329/9 184/281/9
f 62/128/9 180/321/9 177/328/9 61/129/9
f 178/150/2 183/325/2 185/324/2 180/126/2
f 185/323/5 183/330/5 182/331/5 184/279/5
f 175/319/1 174/273/1 182/281/1 183/320/1
f 177/127/6 175/151/6 183/325/6 185/324/6
f 174/151/2 176/127/2 184/324/2 182/325/2
f 176/274/4 174/275/4 175/327/4 177/326/4
f 90/199/2 92/202/2 187/201/2 186/200/2
f 91/118/1 95/119/1 189/203/1 187/196/1
f 225/332/4 205/333/4 193/334/4 206/335/4
f 194/336/4 213/337/4 209/338/4 192/339/4
f 213/337/4 217/340/4 208/341/4 209/338/4
f 217/340/4 221/342/4 207/343/4 208/341/4
f 221/342/4 225/332/4 206/335/4 207/343/4
f 190/344/4 198/345/4 210/346/4 197/347/4
f 197/347/4 210/346/4 211/348/4 196/349/4
f 196/349/4 211/348/4 212/350/4 195/351/4
f 195/351/4 212/350/4 213/337/4 194/336/4
f 198/345/4 199/352/4 214/353/4 210/346/4
f 210/346/4 214/353/4 215/354/4 211/348/4
f 211/348/4 215/354/4 216/355/4 212/350/4
f 212/350/4 216/355/4 217/340/4 213/337/4
f 199/352/4 200/356/4 218/357/4 214/353/4
f 214/353/4 218/357/4 219/358/4 215/354/4
f 215/354/4 219/358/4 220/359/4 216/355/4
f 216/355/4 220/359/4 221/342/4 217/340/4
f 200/356/4 201/360/4 222/361/4 218/357/4
f 218/357/4 222/361/4 223/362/4 219/358/4
f 219/358/4 223/362/4 224/363/4 220/359/4
f 220/359/4 224/363/4 225/332/4 221/342/4
f 201/360/4 191/364/4 202/365/4 222/361/4
f 222/361/4 202/365/4 203/366/4 223/362/4
f 223/362/4 203/366/4 204/367/4 224/363/4
f 224/363/4 204/367/4 205/333/4 225/332/4
f 77/129/9 78/128/9 113/187/9 124/186/9 120/185/9
f 163/262/2 164/309/2 166/311/2 167/368/2 168/263/2
