{
	"asset":{
		"generator":"Khronos glTF Blender I/O v4.5.49",
		"version":"2.0"
	},
	"scene":0,
	"scenes":[
		{
			"name":"Scene",
			"nodes":[
				0
			]
		}
	],
	"nodes":[
		{
			"mesh":0,
			"name":"Body"
		}
	],
	"materials":[
		{
			"doubleSided":true,
			"name":"Main",
			"pbrMetallicRoughness":{
				"baseColorTexture":{
					"index":0
				},
				"metallicFactor":0,
				"roughnessFactor":0.5
			}
		},
		{
			"doubleSided":true,
			"name":"Eyes",
			"pbrMetallicRoughness":{
				"baseColorTexture":{
					"index":1
				},
				"metallicFactor":0,
				"roughnessFactor":0.5
			}
		}
	],
	"meshes":[
		{
			"name":"Plane.001",
			"primitives":[
				{
					"attributes":{
						"POSITION":0,
						"NORMAL":1,
						"TEXCOORD_0":2,
						"TANGENT":3
					},
					"indices":4,
					"material":0
				},
				{
					"attributes":{
						"POSITION":5,
						"NORMAL":6,
						"TEXCOORD_0":7,
						"TANGENT":8
					},
					"indices":9,
					"material":1
				}
			]
		}
	],
	"textures":[
		{
			"sampler":0,
			"source":0
		},
		{
			"sampler":0,
			"source":1
		}
	],
	"images":[
		{
			"mimeType":"image/png",
			"name":"MaterialColor",
			"uri":"MaterialColor.png"
		},
		{
			"mimeType":"image/png",
			"name":"Eyes",
			"uri":"Eyes.png"
		}
	],
	"accessors":[
		{
			"bufferView":0,
			"componentType":5126,
			"count":749,
			"max":[
				1.890840768814087,
				5.068730354309082,
				0.8414914608001709
			],
			"min":[
				-1.9196420907974243,
				-2.656620927155018e-05,
				-1.6586624383926392
			],
			"type":"VEC3"
		},
		{
			"bufferView":1,
			"componentType":5126,
			"count":749,
			"type":"VEC3"
		},
		{
			"bufferView":2,
			"componentType":5126,
			"count":749,
			"type":"VEC2"
		},
		{
			"bufferView":3,
			"componentType":5126,
			"count":749,
			"type":"VEC4"
		},
		{
			"bufferView":4,
			"componentType":5123,
			"count":753,
			"type":"SCALAR"
		},
		{
			"bufferView":5,
			"componentType":5126,
			"count":12,
			"max":[
				0.5169692039489746,
				4.0941853523254395,
				0.5217415690422058
			],
			"min":[
				-0.5297154188156128,
				3.557068347930908,
				0.049836158752441406
			],
			"type":"VEC3"
		},
		{
			"bufferView":6,
			"componentType":5126,
			"count":12,
			"type":"VEC3"
		},
		{
			"bufferView":7,
			"componentType":5126,
			"count":12,
			"type":"VEC2"
		},
		{
			"bufferView":8,
			"componentType":5126,
			"count":12,
			"type":"VEC4"
		},
		{
			"bufferView":9,
			"componentType":5123,
			"count":12,
			"type":"SCALAR"
		}
	],
	"bufferViews":[
		{
			"buffer":0,
			"byteLength":8988,
			"byteOffset":0,
			"target":34962
		},
		{
			"buffer":0,
			"byteLength":8988,
			"byteOffset":8988,
			"target":34962
		},
		{
			"buffer":0,
			"byteLength":5992,
			"byteOffset":17976,
			"target":34962
		},
		{
			"buffer":0,
			"byteLength":11984,
			"byteOffset":23968,
			"target":34962
		},
		{
			"buffer":0,
			"byteLength":1506,
			"byteOffset":35952,
			"target":34963
		},
		{
			"buffer":0,
			"byteLength":144,
			"byteOffset":37460,
			"target":34962
		},
		{
			"buffer":0,
			"byteLength":144,
			"byteOffset":37604,
			"target":34962
		},
		{
			"buffer":0,
			"byteLength":96,
			"byteOffset":37748,
			"target":34962
		},
		{
			"buffer":0,
			"byteLength":192,
			"byteOffset":37844,
			"target":34962
		},
		{
			"buffer":0,
			"byteLength":24,
			"byteOffset":38036,
			"target":34963
		}
	],
	"samplers":[
		{
			"magFilter":9728,
			"minFilter":9984
		}
	],
	"buffers":[
		{
			"byteLength":38060,
			"uri":"Cassandra_256.bin"
		}
	]
}
